<?xml version="1.0" encoding="UTF-8" standalone="yes"?>
<svg version="1.2" width="100%" viewBox="0 0 512 512" xml:space="preserve" baseProfile="tiny-ps" xmlns="http://www.w3.org/2000/svg">
  <title>bimi-svg-tiny-12-ps</title>
  <path fill="#FFFFFE" stroke="none" d="&#xA;M513.000000,251.000000 &#xA;&#x9;C513.000000,338.645386 513.000000,425.790771 513.000000,512.968079 &#xA;&#x9;C342.396271,512.968079 171.792526,512.968079 1.094398,512.968079 &#xA;&#x9;C1.094398,342.437958 1.094398,171.875870 1.094398,1.156883 &#xA;&#x9;C171.666550,1.156883 342.333252,1.156883 513.000000,1.156883 &#xA;&#x9;C513.000000,84.207428 513.000000,167.353714 513.000000,251.000000 &#xA;M409.937927,230.247467 &#xA;&#x9;C412.578156,224.234955 413.513672,218.035812 412.200592,210.556503 &#xA;&#x9;C400.879486,223.115936 385.977753,227.835403 371.766510,233.680908 &#xA;&#x9;C356.195984,240.085526 343.200409,249.843155 332.263062,262.494537 &#xA;&#x9;C330.729706,264.268188 329.431244,266.244904 328.024017,268.127625 &#xA;&#x9;C329.457489,268.333649 330.145172,267.957916 330.712463,267.448181 &#xA;&#x9;C345.893372,253.807190 363.252747,244.644516 383.528351,241.133133 &#xA;&#x9;C392.967987,239.498367 402.554779,237.898438 410.370850,231.672089 &#xA;&#x9;C409.191254,233.199860 408.327423,235.418716 406.774078,236.128433 &#xA;&#x9;C401.696442,238.448471 396.522644,241.046005 391.109192,242.060349 &#xA;&#x9;C364.646057,247.018860 341.573151,257.916718 323.176178,278.114624 &#xA;&#x9;C317.718903,284.106140 311.184448,289.117401 305.134033,294.567230 &#xA;&#x9;C303.897583,295.680939 302.618408,296.747192 301.358917,297.835358 &#xA;&#x9;C302.783417,298.303070 303.742981,298.119385 304.674286,297.841156 &#xA;&#x9;C313.269287,295.272919 319.793091,289.597656 325.976501,283.474731 &#xA;&#x9;C341.331360,268.270264 359.209778,258.073303 380.992249,255.601334 &#xA;&#x9;C389.236237,254.665771 397.584686,254.333893 405.704254,252.779724 &#xA;&#x9;C408.825470,252.182312 413.380768,249.348236 413.899506,246.834961 &#xA;&#x9;C415.115570,240.943680 414.288483,234.630676 414.288483,228.352051 &#xA;&#x9;C412.540649,229.434204 411.261902,230.225922 409.937927,230.247467 &#xA;M208.444046,200.234863 &#xA;&#x9;C205.914871,196.248718 202.245972,192.575012 201.052795,188.222626 &#xA;&#x9;C195.738235,168.836441 210.485626,148.063019 231.224442,144.945648 &#xA;&#x9;C248.712418,142.316910 266.080048,144.353088 283.431366,146.458939 &#xA;&#x9;C287.603180,146.965256 291.730042,147.841599 295.110382,148.417145 &#xA;&#x9;C288.182770,159.728104 280.437378,170.094177 275.129211,181.586029 &#xA;&#x9;C267.541138,198.013687 261.656769,215.234650 255.192642,232.173233 &#xA;&#x9;C249.091873,248.159744 241.860153,263.425873 229.215881,275.468353 &#xA;&#x9;C216.766968,287.324738 202.911606,289.567291 190.763550,281.684357 &#xA;&#x9;C180.141174,274.791443 175.170700,263.269623 177.885925,250.059174 &#xA;&#x9;C181.077148,234.532837 188.866684,222.542969 205.356842,218.591599 &#xA;&#x9;C213.679871,216.597229 221.447510,218.440445 227.289444,224.881348 &#xA;&#x9;C232.548386,230.679489 232.125427,237.609222 229.493088,244.581818 &#xA;&#x9;C229.140976,245.514481 229.334808,246.653259 229.275803,247.696579 &#xA;&#x9;C229.797531,247.916855 230.319260,248.137131 230.840988,248.357407 &#xA;&#x9;C231.867615,246.608963 233.326096,244.981155 233.853500,243.093262 &#xA;&#x9;C238.665970,225.866058 224.023575,211.148209 205.680054,214.453613 &#xA;&#x9;C182.291794,218.668076 172.445862,240.563751 173.505066,258.199036 &#xA;&#x9;C174.505478,274.855133 183.638672,285.964935 197.652100,289.467957 &#xA;&#x9;C208.025558,292.061096 218.124298,290.867249 227.847656,286.509003 &#xA;&#x9;C245.308685,278.682587 256.175720,264.413422 265.246216,248.324738 &#xA;&#x9;C274.694550,231.565857 278.107422,212.739960 284.070923,194.774857 &#xA;&#x9;C288.402893,181.724686 293.466766,168.875458 298.984741,156.278549 &#xA;&#x9;C301.780151,149.897003 305.324707,149.508011 312.094299,149.922516 &#xA;&#x9;C320.658691,150.446930 329.416168,150.844696 337.853119,149.638214 &#xA;&#x9;C347.801178,148.215668 356.576508,143.614685 361.457550,133.955185 &#xA;&#x9;C362.169342,132.546600 362.293823,130.841263 362.690063,129.273224 &#xA;&#x9;C360.396393,129.557449 359.079346,130.265839 358.205414,131.336060 &#xA;&#x9;C354.155701,136.295227 348.510284,137.513687 342.631927,138.085709 &#xA;&#x9;C339.823700,138.358978 336.942780,138.475876 334.145844,138.180450 &#xA;&#x9;C313.986389,136.051056 293.877655,133.323120 273.678528,131.722290 &#xA;&#x9;C254.872772,130.231888 236.389648,132.417038 219.380280,141.466858 &#xA;&#x9;C207.157669,147.969879 197.410904,156.751404 195.501205,171.458466 &#xA;&#x9;C193.996429,183.047028 194.435623,194.342285 204.728607,202.360718 &#xA;&#x9;C220.623764,214.743332 246.829361,206.583527 252.913071,187.412659 &#xA;&#x9;C254.947128,181.003036 254.898224,174.554352 251.108429,168.676331 &#xA;&#x9;C250.241684,167.332031 248.560013,166.513168 247.253403,165.452469 &#xA;&#x9;C246.906296,165.810104 246.559174,166.167740 246.212067,166.525360 &#xA;&#x9;C246.633408,167.530014 246.913879,168.626617 247.499573,169.524002 &#xA;&#x9;C250.659103,174.364883 250.758865,179.611191 249.280701,184.888000 &#xA;&#x9;C244.691666,201.270065 224.991287,208.943481 208.444046,200.234863 &#xA;M295.403656,62.889980 &#xA;&#x9;C366.128601,87.273857 403.436401,136.672333 407.304779,213.127762 &#xA;&#x9;C409.219269,209.737503 411.925171,207.176590 411.832306,204.721573 &#xA;&#x9;C411.443481,194.445374 411.371704,183.935318 409.087769,173.992401 &#xA;&#x9;C400.727478,137.596100 382.436096,107.065765 352.484558,84.213272 &#xA;&#x9;C318.470795,58.261375 279.835754,46.020012 237.623978,53.349037 &#xA;&#x9;C173.598053,64.465546 132.127060,103.004753 112.194168,164.748611 &#xA;&#x9;C110.750069,169.221863 109.903328,173.887955 108.778847,178.464371 &#xA;&#x9;C109.397049,178.773682 110.015251,179.082993 110.633453,179.392303 &#xA;&#x9;C112.602676,176.356827 115.455818,173.573441 116.404472,170.246933 &#xA;&#x9;C125.962868,136.729797 144.476166,109.245346 172.174240,88.290245 &#xA;&#x9;C208.829163,60.558815 249.576370,51.059189 295.403656,62.889980 &#xA;M338.972809,333.525848 &#xA;&#x9;C270.110565,379.753937 172.454041,357.794708 129.062805,276.349884 &#xA;&#x9;C127.462349,277.052002 125.837601,277.764771 124.208649,278.479370 &#xA;&#x9;C144.000610,321.968597 190.795120,361.679138 255.275284,363.393799 &#xA;&#x9;C307.297791,364.777191 349.216675,343.328888 380.803894,300.816772 &#xA;&#x9;C378.583923,299.691284 377.046600,298.911896 375.382812,298.068390 &#xA;&#x9;C365.015839,311.739258 353.421692,323.595428 338.972809,333.525848 &#xA;M126.464508,162.217224 &#xA;&#x9;C129.219513,158.170029 132.648560,154.423798 134.613144,150.023682 &#xA;&#x9;C143.230515,130.723343 155.971771,114.635078 172.561584,101.844032 &#xA;&#x9;C203.285019,78.155663 237.344574,64.475197 277.018921,69.963272 &#xA;&#x9;C305.150482,73.854660 330.383698,84.787758 350.936981,104.462761 &#xA;&#x9;C380.886108,133.132095 395.784576,168.705154 396.218445,210.239349 &#xA;&#x9;C396.244720,212.757538 396.221863,215.276245 396.221863,217.794708 &#xA;&#x9;C396.993042,217.887695 397.764221,217.980682 398.535400,218.073654 &#xA;&#x9;C399.025543,215.646530 399.961273,213.215439 399.939697,210.792877 &#xA;&#x9;C399.551727,167.293671 384.060760,130.016510 351.894928,100.698647 &#xA;&#x9;C323.731659,75.028984 289.908203,63.143055 251.658401,65.069122 &#xA;&#x9;C224.296875,66.446915 199.608505,75.734459 177.844604,92.258156 &#xA;&#x9;C154.011063,110.353165 135.330246,132.472763 126.464508,162.217224 &#xA;M176.684799,216.147217 &#xA;&#x9;C179.582108,206.383881 181.493408,196.643646 180.157532,186.241531 &#xA;&#x9;C178.511490,173.424072 177.296829,160.485031 177.039429,147.575729 &#xA;&#x9;C176.822342,136.688370 182.067001,128.144913 192.049683,122.957573 &#xA;&#x9;C192.945267,122.492195 193.666290,121.690910 195.567764,120.161156 &#xA;&#x9;C192.213684,120.354637 190.248718,120.264610 188.363220,120.609337 &#xA;&#x9;C174.860748,123.077995 163.837662,135.109283 161.038712,150.294937 &#xA;&#x9;C158.612259,163.459412 160.605728,176.484467 162.516708,189.460220 &#xA;&#x9;C165.001526,206.332245 166.691132,223.127625 161.660889,239.847794 &#xA;&#x9;C161.515244,240.331894 161.642471,240.898117 161.642471,242.489075 &#xA;&#x9;C169.332214,234.697159 173.290543,226.041428 176.684799,216.147217 &#xA;M341.116638,318.638947 &#xA;&#x9;C314.839966,339.252472 284.926605,348.341980 251.711761,346.298492 &#xA;&#x9;C209.966476,343.730133 177.019745,324.389374 151.102615,292.294250 &#xA;&#x9;C145.931534,285.890533 141.578766,278.826080 136.848663,272.066284 &#xA;&#x9;C136.299728,272.203033 135.750778,272.339783 135.201828,272.476532 &#xA;&#x9;C135.442062,274.102386 135.233963,275.982880 135.990707,277.315399 &#xA;&#x9;C145.290253,293.690369 156.933975,308.046783 172.126358,319.425079 &#xA;&#x9;C205.329788,344.292755 241.956299,356.240265 283.565155,348.778870 &#xA;&#x9;C317.335419,342.723145 345.126831,326.263977 366.607941,299.417786 &#xA;&#x9;C367.644592,298.122223 367.738190,296.072144 368.270935,294.373413 &#xA;&#x9;C366.833771,295.179596 365.163940,295.737762 363.997223,296.832245 &#xA;&#x9;C356.486694,303.877716 349.086273,311.040558 341.116638,318.638947 &#xA;M382.161591,446.498047 &#xA;&#x9;C382.161591,451.910461 382.161591,457.322845 382.161591,462.628967 &#xA;&#x9;C384.943207,462.628967 386.849670,462.628967 389.377930,462.628967 &#xA;&#x9;C389.377930,449.567078 389.377930,436.870728 389.377930,423.081940 &#xA;&#x9;C390.858856,424.678558 391.607452,425.289673 392.113098,426.060211 &#xA;&#x9;C399.328003,437.054749 406.704224,447.951569 413.584106,459.152863 &#xA;&#x9;C415.700714,462.598969 417.754242,463.927673 421.721008,462.461365 &#xA;&#x9;C421.721008,444.489471 421.721008,426.449036 421.721008,408.326721 &#xA;&#x9;C419.458862,408.326721 417.554565,408.326721 414.947449,408.326721 &#xA;&#x9;C414.947449,420.925812 414.947449,433.218903 414.947449,445.512024 &#xA;&#x9;C407.035431,435.124023 399.796021,424.759583 393.490875,413.854980 &#xA;&#x9;C390.303986,408.343414 386.491760,407.012482 382.161865,408.067871 &#xA;&#x9;C382.161865,420.737152 382.161865,433.117859 382.161591,446.498047 &#xA;M202.920807,454.633942 &#xA;&#x9;C207.882278,463.123962 210.013168,464.446716 217.574005,462.357483 &#xA;&#x9;C212.322128,454.454956 206.908478,446.308990 201.329529,437.914307 &#xA;&#x9;C203.363800,437.014618 204.578903,436.517029 205.759766,435.948303 &#xA;&#x9;C211.845383,433.017120 215.418991,427.181793 214.812576,421.204742 &#xA;&#x9;C214.105255,414.233215 210.392029,409.531311 202.753021,408.770416 &#xA;&#x9;C194.225906,407.921051 185.548996,408.575623 177.923309,408.575623 &#xA;&#x9;C177.923309,426.403412 177.923309,444.528717 177.923309,462.708496 &#xA;&#x9;C181.374710,462.708496 183.791656,462.708496 186.952179,462.708496 &#xA;&#x9;C186.952179,454.401031 186.952179,446.376251 186.952179,438.666626 &#xA;&#x9;C191.150009,437.245483 193.260849,438.660065 194.959595,441.704224 &#xA;&#x9;C197.305542,445.908112 200.000732,449.917114 202.920807,454.633942 &#xA;M155.440781,436.059906 &#xA;&#x9;C163.501404,431.208984 165.935669,426.236694 164.035400,418.504333 &#xA;&#x9;C162.413300,411.903900 157.175613,408.294128 148.357437,408.078430 &#xA;&#x9;C141.214340,407.903687 134.063583,408.042969 127.844116,408.042969 &#xA;&#x9;C127.844116,426.376129 127.844116,444.508606 127.844116,462.696960 &#xA;&#x9;C131.294983,462.696960 133.706818,462.696960 136.644409,462.696960 &#xA;&#x9;C136.644409,456.098236 136.498581,449.797211 136.736176,443.510712 &#xA;&#x9;C136.804565,441.700958 137.977921,439.932953 138.644684,438.145813 &#xA;&#x9;C140.614349,439.283417 143.226440,439.960541 144.433624,441.644684 &#xA;&#x9;C148.110046,446.773743 151.128815,452.367920 154.621597,457.636536 &#xA;&#x9;C158.343033,463.250183 161.807236,464.255219 167.468216,462.398499 &#xA;&#x9;C162.693253,455.217773 157.839218,447.783173 152.829987,440.454651 &#xA;&#x9;C150.945511,437.697632 152.644257,437.031891 155.440781,436.059906 &#xA;M437.885925,443.499573 &#xA;&#x9;C437.885925,449.899414 437.885925,456.299225 437.885925,464.207977 &#xA;&#x9;C446.134308,462.895172 453.469360,462.302521 460.482880,460.475586 &#xA;&#x9;C470.772339,457.795288 476.321594,450.179688 477.497894,439.952545 &#xA;&#x9;C479.321808,424.094757 474.387817,410.761536 456.680359,408.416931 &#xA;&#x9;C449.912842,407.520874 442.927368,408.271149 436.462738,408.271149 &#xA;&#x9;C439.368652,419.708130 437.216797,431.180267 437.885925,443.499573 &#xA;M341.546173,276.852875 &#xA;&#x9;C352.837219,270.738556 364.857269,270.403839 376.951172,273.176117 &#xA;&#x9;C383.376862,274.649109 389.404327,277.798218 395.791107,279.527679 &#xA;&#x9;C399.063721,280.413879 403.432037,281.114380 406.072144,279.660187 &#xA;&#x9;C411.325287,276.766785 415.065552,261.120422 413.068695,255.425674 &#xA;&#x9;C399.695923,256.984009 386.266693,257.874878 373.108215,260.259735 &#xA;&#x9;C358.023926,262.993561 342.960571,271.239319 337.775696,278.176544 &#xA;&#x9;C339.058136,277.731262 339.964722,277.416504 341.546173,276.852875 &#xA;M127.454529,219.970459 &#xA;&#x9;C121.723602,223.656021 118.104141,228.727524 116.825027,235.515579 &#xA;&#x9;C115.749550,241.222946 114.248192,246.851212 113.218338,252.565491 &#xA;&#x9;C112.805725,254.854889 113.150429,257.280762 113.150429,259.644501 &#xA;&#x9;C113.631096,259.924133 114.111763,260.203735 114.592438,260.483337 &#xA;&#x9;C120.299400,254.570084 126.555901,249.088104 131.602982,242.656982 &#xA;&#x9;C143.392502,227.634521 152.502258,211.082306 157.216110,192.393738 &#xA;&#x9;C157.633209,190.740112 157.271484,188.890060 157.271484,187.570190 &#xA;&#x9;C147.410156,198.331741 137.704361,208.923553 127.454529,219.970459 &#xA;M148.251343,170.742538 &#xA;&#x9;C152.108551,167.407837 154.662048,163.561234 155.775803,158.290710 &#xA;&#x9;C157.440262,150.414093 160.181320,142.765625 162.432617,135.010880 &#xA;&#x9;C162.578003,134.510071 162.451553,133.930359 162.451553,132.574142 &#xA;&#x9;C139.472885,148.038818 123.739204,168.982574 108.102539,192.024292 &#xA;&#x9;C124.313538,188.573013 136.376175,180.595566 148.251343,170.742538 &#xA;M371.388763,460.021088 &#xA;&#x9;C365.864471,444.329498 360.309113,428.648773 354.843475,412.936798 &#xA;&#x9;C353.812988,409.974426 353.009277,407.701813 348.856415,407.814331 &#xA;&#x9;C344.994843,407.918915 344.216705,409.978394 343.251465,412.777405 &#xA;&#x9;C337.527283,429.376556 331.719788,445.947021 325.959625,462.471649 &#xA;&#x9;C332.918823,463.908661 333.837402,463.310089 336.368256,456.292908 &#xA;&#x9;C339.491882,447.632172 337.002655,448.944397 346.972412,448.800598 &#xA;&#x9;C347.472260,448.793396 347.972260,448.799683 348.472198,448.799683 &#xA;&#x9;C357.972076,448.799683 357.972076,448.799683 361.604340,457.608704 &#xA;&#x9;C363.610535,462.474213 366.595917,464.159241 371.283600,462.864990 &#xA;&#x9;C371.663910,462.759949 371.694977,461.389954 371.388763,460.021088 &#xA;M92.946999,453.300629 &#xA;&#x9;C92.946999,447.880096 92.946999,442.459595 92.946999,436.724457 &#xA;&#x9;C98.430099,436.724457 103.081398,436.610443 107.724327,436.758545 &#xA;&#x9;C111.841187,436.889923 112.611748,434.996155 111.189781,430.836029 &#xA;&#x9;C105.305977,430.836029 99.260925,430.836029 92.948006,430.836029 &#xA;&#x9;C92.948006,425.652527 92.931168,421.171967 92.963799,416.691803 &#xA;&#x9;C92.969566,415.900757 93.181946,415.111267 93.378494,413.783447 &#xA;&#x9;C97.333832,413.783447 101.135666,413.543915 104.892342,413.852997 &#xA;&#x9;C108.422913,414.143524 111.905815,415.013336 115.348465,415.617523 &#xA;&#x9;C115.348465,413.723175 115.348465,411.133087 115.348465,408.286041 &#xA;&#x9;C104.373177,408.286041 93.710426,408.286041 83.609276,408.286041 &#xA;&#x9;C84.060394,410.844574 84.813034,413.187897 84.832001,415.537170 &#xA;&#x9;C84.944847,429.515167 84.878693,443.494537 84.900124,457.473419 &#xA;&#x9;C84.902809,459.221466 85.067375,460.969238 85.171860,463.008667 &#xA;&#x9;C93.396027,463.008667 101.034210,463.009979 108.672394,463.008301 &#xA;&#x9;C116.810898,463.006500 117.771355,461.869446 116.511429,454.091522 &#xA;&#x9;C109.087540,457.829712 101.264999,456.237671 93.526978,455.554596 &#xA;&#x9;C93.310669,455.535492 93.165710,454.708160 92.946999,453.300629 &#xA;M111.649300,209.176468 &#xA;&#x9;C109.018074,215.740631 105.537781,222.059357 104.945953,229.811462 &#xA;&#x9;C106.273285,229.391220 106.793358,229.338028 107.186134,229.086227 &#xA;&#x9;C126.709679,216.571335 141.949188,199.905273 154.095840,180.315552 &#xA;&#x9;C155.263336,178.432648 155.408279,175.915726 156.313293,172.669479 &#xA;&#x9;C147.693344,178.189026 140.694000,183.649536 132.880508,187.425247 &#xA;&#x9;C123.203186,192.101639 116.415718,198.970306 111.649300,209.176468 &#xA;M361.599426,274.970734 &#xA;&#x9;C350.608276,275.536346 340.561768,278.751801 330.395081,285.979919 &#xA;&#x9;C332.447998,285.733246 333.078918,285.724426 333.675018,285.575989 &#xA;&#x9;C346.246002,282.445709 358.032684,284.092987 368.941711,291.275482 &#xA;&#x9;C371.716888,293.102692 374.481384,294.967834 377.382935,296.577362 &#xA;&#x9;C386.683655,301.736572 392.543732,300.287170 398.511414,291.431854 &#xA;&#x9;C399.700653,289.667145 400.687286,287.765900 402.028046,285.483856 &#xA;&#x9;C389.028076,280.162933 376.577454,274.719635 361.599426,274.970734 &#xA;M157.190216,232.662903 &#xA;&#x9;C160.421692,222.667587 161.064896,209.530243 158.395615,205.132645 &#xA;&#x9;C157.982574,205.745834 157.488785,206.225266 157.293930,206.805130 &#xA;&#x9;C151.974380,222.637192 144.002151,236.924728 132.658615,249.257477 &#xA;&#x9;C125.893890,256.612122 123.883705,266.013519 121.514107,275.404327 &#xA;&#x9;C139.731476,266.769440 150.385681,251.821655 157.190216,232.662903 &#xA;M229.588562,426.947205 &#xA;&#x9;C237.210648,437.663910 238.169540,449.898132 236.837753,462.602783 &#xA;&#x9;C240.044159,462.602783 242.402725,462.602783 244.867859,462.602783 &#xA;&#x9;C244.951569,461.056244 245.174835,459.890564 245.050995,458.762970 &#xA;&#x9;C243.772034,447.118317 246.378754,436.562866 252.800385,426.652313 &#xA;&#x9;C256.433594,421.045227 258.913635,414.690948 261.959290,408.580414 &#xA;&#x9;C255.989944,406.802338 253.107117,408.777191 251.167419,413.945404 &#xA;&#x9;C248.626297,420.716034 245.224686,427.163696 241.816681,434.568329 &#xA;&#x9;C238.414429,427.498444 235.426163,421.283234 232.432938,415.070404 &#xA;&#x9;C228.739395,407.403992 228.737610,407.404846 220.208618,408.323975 &#xA;&#x9;C223.175766,414.241211 226.198395,420.269165 229.588562,426.947205 &#xA;M51.039536,419.612854 &#xA;&#x9;C51.039536,433.882629 51.039536,448.152405 51.039536,462.637024 &#xA;&#x9;C53.946400,462.637024 56.309338,462.637024 59.303505,462.637024 &#xA;&#x9;C59.303505,446.233734 59.303505,430.196350 59.303505,413.220306 &#xA;&#x9;C64.694283,413.956024 69.332390,414.588989 73.675812,415.181763 &#xA;&#x9;C73.675812,413.513824 73.675812,410.943604 73.675812,408.324707 &#xA;&#x9;C61.053181,408.324707 48.825150,408.324707 36.351158,408.324707 &#xA;&#x9;C36.351158,411.219330 36.351158,413.790131 36.351158,415.174805 &#xA;&#x9;C41.016956,414.569214 45.638031,413.969421 50.669266,413.316406 &#xA;&#x9;C50.838009,415.743744 50.938766,417.193115 51.039536,419.612854 &#xA;M301.010345,413.636963 &#xA;&#x9;C301.010345,411.876526 301.010345,410.116089 301.010345,408.291565 &#xA;&#x9;C297.404968,408.291565 294.528748,408.291565 292.660645,408.291565 &#xA;&#x9;C292.660645,426.526581 292.660645,444.521667 292.660645,463.005157 &#xA;&#x9;C300.761658,463.005157 307.872681,463.011078 314.983704,463.003540 &#xA;&#x9;C321.896118,462.996185 323.824677,460.381287 322.062775,453.688354 &#xA;&#x9;C315.562195,458.587830 308.338165,455.413208 301.010376,456.140106 &#xA;&#x9;C301.010376,441.820526 301.010376,428.211639 301.010345,413.636963 &#xA;z"/>
  <path fill="#DBBA72" stroke="none" d="&#xA;M208.745544,200.453003 &#xA;&#x9;C224.991287,208.943481 244.691666,201.270065 249.280701,184.888000 &#xA;&#x9;C250.758865,179.611191 250.659103,174.364883 247.499573,169.524002 &#xA;&#x9;C246.913879,168.626617 246.633408,167.530014 246.212067,166.525360 &#xA;&#x9;C246.559174,166.167740 246.906296,165.810104 247.253403,165.452469 &#xA;&#x9;C248.560013,166.513168 250.241684,167.332031 251.108429,168.676331 &#xA;&#x9;C254.898224,174.554352 254.947128,181.003036 252.913071,187.412659 &#xA;&#x9;C246.829361,206.583527 220.623764,214.743332 204.728607,202.360718 &#xA;&#x9;C194.435623,194.342285 193.996429,183.047028 195.501205,171.458466 &#xA;&#x9;C197.410904,156.751404 207.157669,147.969879 219.380280,141.466858 &#xA;&#x9;C236.389648,132.417038 254.872772,130.231888 273.678528,131.722290 &#xA;&#x9;C293.877655,133.323120 313.986389,136.051056 334.145844,138.180450 &#xA;&#x9;C336.942780,138.475876 339.823700,138.358978 342.631927,138.085709 &#xA;&#x9;C348.510284,137.513687 354.155701,136.295227 358.205414,131.336060 &#xA;&#x9;C359.079346,130.265839 360.396393,129.557449 362.690063,129.273224 &#xA;&#x9;C362.293823,130.841263 362.169342,132.546600 361.457550,133.955185 &#xA;&#x9;C356.576508,143.614685 347.801178,148.215668 337.853119,149.638214 &#xA;&#x9;C329.416168,150.844696 320.658691,150.446930 312.094299,149.922516 &#xA;&#x9;C305.324707,149.508011 301.780151,149.897003 298.984741,156.278549 &#xA;&#x9;C293.466766,168.875458 288.402893,181.724686 284.070923,194.774857 &#xA;&#x9;C278.107422,212.739960 274.694550,231.565857 265.246216,248.324738 &#xA;&#x9;C256.175720,264.413422 245.308685,278.682587 227.847656,286.509003 &#xA;&#x9;C218.124298,290.867249 208.025558,292.061096 197.652100,289.467957 &#xA;&#x9;C183.638672,285.964935 174.505478,274.855133 173.505066,258.199036 &#xA;&#x9;C172.445862,240.563751 182.291794,218.668076 205.680054,214.453613 &#xA;&#x9;C224.023575,211.148209 238.665970,225.866058 233.853500,243.093262 &#xA;&#x9;C233.326096,244.981155 231.867615,246.608963 230.840988,248.357407 &#xA;&#x9;C230.319260,248.137131 229.797531,247.916855 229.275803,247.696579 &#xA;&#x9;C229.334808,246.653259 229.140976,245.514481 229.493088,244.581818 &#xA;&#x9;C232.125427,237.609222 232.548386,230.679489 227.289444,224.881348 &#xA;&#x9;C221.447510,218.440445 213.679871,216.597229 205.356842,218.591599 &#xA;&#x9;C188.866684,222.542969 181.077148,234.532837 177.885925,250.059174 &#xA;&#x9;C175.170700,263.269623 180.141174,274.791443 190.763550,281.684357 &#xA;&#x9;C202.911606,289.567291 216.766968,287.324738 229.215881,275.468353 &#xA;&#x9;C241.860153,263.425873 249.091873,248.159744 255.192642,232.173233 &#xA;&#x9;C261.656769,215.234650 267.541138,198.013687 275.129211,181.586029 &#xA;&#x9;C280.437378,170.094177 288.182770,159.728104 295.110382,148.417145 &#xA;&#x9;C291.730042,147.841599 287.603180,146.965256 283.431366,146.458939 &#xA;&#x9;C266.080048,144.353088 248.712418,142.316910 231.224442,144.945648 &#xA;&#x9;C210.485626,148.063019 195.738235,168.836441 201.052795,188.222626 &#xA;&#x9;C202.245972,192.575012 205.914871,196.248718 208.745544,200.453003 &#xA;z"/>
  <path fill="#DBBB73" stroke="none" d="&#xA;M295.001190,62.823662 &#xA;&#x9;C249.576370,51.059189 208.829163,60.558815 172.174240,88.290245 &#xA;&#x9;C144.476166,109.245346 125.962868,136.729797 116.404472,170.246933 &#xA;&#x9;C115.455818,173.573441 112.602676,176.356827 110.633453,179.392303 &#xA;&#x9;C110.015251,179.082993 109.397049,178.773682 108.778847,178.464371 &#xA;&#x9;C109.903328,173.887955 110.750069,169.221863 112.194168,164.748611 &#xA;&#x9;C132.127060,103.004753 173.598053,64.465546 237.623978,53.349037 &#xA;&#x9;C279.835754,46.020012 318.470795,58.261375 352.484558,84.213272 &#xA;&#x9;C382.436096,107.065765 400.727478,137.596100 409.087769,173.992401 &#xA;&#x9;C411.371704,183.935318 411.443481,194.445374 411.832306,204.721573 &#xA;&#x9;C411.925171,207.176590 409.219269,209.737503 407.304779,213.127762 &#xA;&#x9;C403.436401,136.672333 366.128601,87.273857 295.001190,62.823662 &#xA;z"/>
  <path fill="#DBBB73" stroke="none" d="&#xA;M339.262085,333.311371 &#xA;&#x9;C353.421692,323.595428 365.015839,311.739258 375.382812,298.068390 &#xA;&#x9;C377.046600,298.911896 378.583923,299.691284 380.803894,300.816772 &#xA;&#x9;C349.216675,343.328888 307.297791,364.777191 255.275284,363.393799 &#xA;&#x9;C190.795120,361.679138 144.000610,321.968597 124.208649,278.479370 &#xA;&#x9;C125.837601,277.764771 127.462349,277.052002 129.062805,276.349884 &#xA;&#x9;C172.454041,357.794708 270.110565,379.753937 339.262085,333.311371 &#xA;z"/>
  <path fill="#DCBD79" stroke="none" d="&#xA;M126.355766,161.924576 &#xA;&#x9;C135.330246,132.472763 154.011063,110.353165 177.844604,92.258156 &#xA;&#x9;C199.608505,75.734459 224.296875,66.446915 251.658401,65.069122 &#xA;&#x9;C289.908203,63.143055 323.731659,75.028984 351.894928,100.698647 &#xA;&#x9;C384.060760,130.016510 399.551727,167.293671 399.939697,210.792877 &#xA;&#x9;C399.961273,213.215439 399.025543,215.646530 398.535400,218.073654 &#xA;&#x9;C397.764221,217.980682 396.993042,217.887695 396.221863,217.794708 &#xA;&#x9;C396.221863,215.276245 396.244720,212.757538 396.218445,210.239349 &#xA;&#x9;C395.784576,168.705154 380.886108,133.132095 350.936981,104.462761 &#xA;&#x9;C330.383698,84.787758 305.150482,73.854660 277.018921,69.963272 &#xA;&#x9;C237.344574,64.475197 203.285019,78.155663 172.561584,101.844032 &#xA;&#x9;C155.971771,114.635078 143.230515,130.723343 134.613144,150.023682 &#xA;&#x9;C132.648560,154.423798 129.219513,158.170029 126.355766,161.924576 &#xA;z"/>
  <path fill="#DAB96F" stroke="none" d="&#xA;M176.531738,216.512695 &#xA;&#x9;C173.290543,226.041428 169.332214,234.697159 161.642471,242.489075 &#xA;&#x9;C161.642471,240.898117 161.515244,240.331894 161.660889,239.847794 &#xA;&#x9;C166.691132,223.127625 165.001526,206.332245 162.516708,189.460220 &#xA;&#x9;C160.605728,176.484467 158.612259,163.459412 161.038712,150.294937 &#xA;&#x9;C163.837662,135.109283 174.860748,123.077995 188.363220,120.609337 &#xA;&#x9;C190.248718,120.264610 192.213684,120.354637 195.567764,120.161156 &#xA;&#x9;C193.666290,121.690910 192.945267,122.492195 192.049683,122.957573 &#xA;&#x9;C182.067001,128.144913 176.822342,136.688370 177.039429,147.575729 &#xA;&#x9;C177.296829,160.485031 178.511490,173.424072 180.157532,186.241531 &#xA;&#x9;C181.493408,196.643646 179.582108,206.383881 176.531738,216.512695 &#xA;z"/>
  <path fill="#DCBD78" stroke="none" d="&#xA;M341.383179,318.401917 &#xA;&#x9;C349.086273,311.040558 356.486694,303.877716 363.997223,296.832245 &#xA;&#x9;C365.163940,295.737762 366.833771,295.179596 368.270935,294.373413 &#xA;&#x9;C367.738190,296.072144 367.644592,298.122223 366.607941,299.417786 &#xA;&#x9;C345.126831,326.263977 317.335419,342.723145 283.565155,348.778870 &#xA;&#x9;C241.956299,356.240265 205.329788,344.292755 172.126358,319.425079 &#xA;&#x9;C156.933975,308.046783 145.290253,293.690369 135.990707,277.315399 &#xA;&#x9;C135.233963,275.982880 135.442062,274.102386 135.201828,272.476532 &#xA;&#x9;C135.750778,272.339783 136.299728,272.203033 136.848663,272.066284 &#xA;&#x9;C141.578766,278.826080 145.931534,285.890533 151.102615,292.294250 &#xA;&#x9;C177.019745,324.389374 209.966476,343.730133 251.711761,346.298492 &#xA;&#x9;C284.926605,348.341980 314.839966,339.252472 341.383179,318.401917 &#xA;z"/>
  <path fill="#DABA72" stroke="none" d="&#xA;M409.983154,231.017639 &#xA;&#x9;C411.261902,230.225922 412.540649,229.434204 414.288483,228.352051 &#xA;&#x9;C414.288483,234.630676 415.115570,240.943680 413.899506,246.834961 &#xA;&#x9;C413.380768,249.348236 408.825470,252.182312 405.704254,252.779724 &#xA;&#x9;C397.584686,254.333893 389.236237,254.665771 380.992249,255.601334 &#xA;&#x9;C359.209778,258.073303 341.331360,268.270264 325.976501,283.474731 &#xA;&#x9;C319.793091,289.597656 313.269287,295.272919 304.674286,297.841156 &#xA;&#x9;C303.742981,298.119385 302.783417,298.303070 301.358917,297.835358 &#xA;&#x9;C302.618408,296.747192 303.897583,295.680939 305.134033,294.567230 &#xA;&#x9;C311.184448,289.117401 317.718903,284.106140 323.176178,278.114624 &#xA;&#x9;C341.573151,257.916718 364.646057,247.018860 391.109192,242.060349 &#xA;&#x9;C396.522644,241.046005 401.696442,238.448471 406.774078,236.128433 &#xA;&#x9;C408.327423,235.418716 409.191254,233.199860 410.187134,231.333023 &#xA;&#x9;C410.003418,230.993958 409.983154,231.017639 409.983154,231.017639 &#xA;z"/>
  <path fill="#DBBA72" stroke="none" d="&#xA;M382.161743,445.998322 &#xA;&#x9;C382.161865,433.117859 382.161865,420.737152 382.161865,408.067871 &#xA;&#x9;C386.491760,407.012482 390.303986,408.343414 393.490875,413.854980 &#xA;&#x9;C399.796021,424.759583 407.035431,435.124023 414.947449,445.512024 &#xA;&#x9;C414.947449,433.218903 414.947449,420.925812 414.947449,408.326721 &#xA;&#x9;C417.554565,408.326721 419.458862,408.326721 421.721008,408.326721 &#xA;&#x9;C421.721008,426.449036 421.721008,444.489471 421.721008,462.461365 &#xA;&#x9;C417.754242,463.927673 415.700714,462.598969 413.584106,459.152863 &#xA;&#x9;C406.704224,447.951569 399.328003,437.054749 392.113098,426.060211 &#xA;&#x9;C391.607452,425.289673 390.858856,424.678558 389.377930,423.081940 &#xA;&#x9;C389.377930,436.870728 389.377930,449.567078 389.377930,462.628967 &#xA;&#x9;C386.849670,462.628967 384.943207,462.628967 382.161591,462.628967 &#xA;&#x9;C382.161591,457.322845 382.161591,451.910461 382.161743,445.998322 &#xA;z"/>
  <path fill="#DBBB73" stroke="none" d="&#xA;M202.733582,454.321777 &#xA;&#x9;C200.000732,449.917114 197.305542,445.908112 194.959595,441.704224 &#xA;&#x9;C193.260849,438.660065 191.150009,437.245483 186.952179,438.666626 &#xA;&#x9;C186.952179,446.376251 186.952179,454.401031 186.952179,462.708496 &#xA;&#x9;C183.791656,462.708496 181.374710,462.708496 177.923309,462.708496 &#xA;&#x9;C177.923309,444.528717 177.923309,426.403412 177.923309,408.575623 &#xA;&#x9;C185.548996,408.575623 194.225906,407.921051 202.753021,408.770416 &#xA;&#x9;C210.392029,409.531311 214.105255,414.233215 214.812576,421.204742 &#xA;&#x9;C215.418991,427.181793 211.845383,433.017120 205.759766,435.948303 &#xA;&#x9;C204.578903,436.517029 203.363800,437.014618 201.329529,437.914307 &#xA;&#x9;C206.908478,446.308990 212.322128,454.454956 217.574005,462.357483 &#xA;&#x9;C210.013168,464.446716 207.882278,463.123962 202.733582,454.321777 &#xA;M188.742096,413.794128 &#xA;&#x9;C187.905350,414.397156 186.369522,414.970856 186.342743,415.607910 &#xA;&#x9;C186.133789,420.583038 186.095673,425.575897 186.327133,430.548279 &#xA;&#x9;C186.364365,431.348083 188.022522,432.742065 188.898987,432.717285 &#xA;&#x9;C192.682571,432.610138 196.593887,432.578979 200.195389,431.575287 &#xA;&#x9;C204.929657,430.255859 206.932648,426.035492 206.055298,420.841675 &#xA;&#x9;C205.264847,416.162354 202.148865,414.110535 197.659653,413.884979 &#xA;&#x9;C195.006317,413.751709 192.343414,413.809021 188.742096,413.794128 &#xA;z"/>
  <path fill="#DBBB73" stroke="none" d="&#xA;M155.101196,436.216492 &#xA;&#x9;C152.644257,437.031891 150.945511,437.697632 152.829987,440.454651 &#xA;&#x9;C157.839218,447.783173 162.693253,455.217773 167.468216,462.398499 &#xA;&#x9;C161.807236,464.255219 158.343033,463.250183 154.621597,457.636536 &#xA;&#x9;C151.128815,452.367920 148.110046,446.773743 144.433624,441.644684 &#xA;&#x9;C143.226440,439.960541 140.614349,439.283417 138.644684,438.145813 &#xA;&#x9;C137.977921,439.932953 136.804565,441.700958 136.736176,443.510712 &#xA;&#x9;C136.498581,449.797211 136.644409,456.098236 136.644409,462.696960 &#xA;&#x9;C133.706818,462.696960 131.294983,462.696960 127.844116,462.696960 &#xA;&#x9;C127.844116,444.508606 127.844116,426.376129 127.844116,408.042969 &#xA;&#x9;C134.063583,408.042969 141.214340,407.903687 148.357437,408.078430 &#xA;&#x9;C157.175613,408.294128 162.413300,411.903900 164.035400,418.504333 &#xA;&#x9;C165.935669,426.236694 163.501404,431.208984 155.101196,436.216492 &#xA;M152.789352,415.469086 &#xA;&#x9;C147.391922,414.718079 141.994507,413.967102 136.061920,413.141632 &#xA;&#x9;C136.061920,417.956909 136.061935,421.254211 136.061935,424.551544 &#xA;&#x9;C136.061951,433.478271 136.401901,433.793365 145.266266,432.802307 &#xA;&#x9;C146.246765,432.692719 147.215744,432.413422 148.169357,432.140503 &#xA;&#x9;C156.240891,429.830688 158.492752,422.894226 152.789352,415.469086 &#xA;z"/>
  <path fill="#DBBA72" stroke="none" d="&#xA;M437.885864,442.999695 &#xA;&#x9;C437.216797,431.180267 439.368652,419.708130 436.462738,408.271149 &#xA;&#x9;C442.927368,408.271149 449.912842,407.520874 456.680359,408.416931 &#xA;&#x9;C474.387817,410.761536 479.321808,424.094757 477.497894,439.952545 &#xA;&#x9;C476.321594,450.179688 470.772339,457.795288 460.482880,460.475586 &#xA;&#x9;C453.469360,462.302521 446.134308,462.895172 437.885925,464.207977 &#xA;&#x9;C437.885925,456.299225 437.885925,449.899414 437.885864,442.999695 &#xA;M445.938934,427.507782 &#xA;&#x9;C445.938934,436.925171 445.938934,446.342590 445.938934,455.633575 &#xA;&#x9;C458.620178,457.668488 466.407471,453.329163 468.469208,442.650452 &#xA;&#x9;C469.423431,437.708313 469.433075,432.287964 468.507812,427.339264 &#xA;&#x9;C466.480469,416.496033 457.232025,411.510254 445.938812,414.738556 &#xA;&#x9;C445.938812,418.580719 445.938812,422.545837 445.938934,427.507782 &#xA;z"/>
  <path fill="#DAB970" stroke="none" d="&#xA;M341.208740,276.977295 &#xA;&#x9;C339.964722,277.416504 339.058136,277.731262 337.775696,278.176544 &#xA;&#x9;C342.960571,271.239319 358.023926,262.993561 373.108215,260.259735 &#xA;&#x9;C386.266693,257.874878 399.695923,256.984009 413.068695,255.425674 &#xA;&#x9;C415.065552,261.120422 411.325287,276.766785 406.072144,279.660187 &#xA;&#x9;C403.432037,281.114380 399.063721,280.413879 395.791107,279.527679 &#xA;&#x9;C389.404327,277.798218 383.376862,274.649109 376.951172,273.176117 &#xA;&#x9;C364.857269,270.403839 352.837219,270.738556 341.208740,276.977295 &#xA;z"/>
  <path fill="#DAB970" stroke="none" d="&#xA;M127.726547,219.742920 &#xA;&#x9;C137.704361,208.923553 147.410156,198.331741 157.271484,187.570190 &#xA;&#x9;C157.271484,188.890060 157.633209,190.740112 157.216110,192.393738 &#xA;&#x9;C152.502258,211.082306 143.392502,227.634521 131.602982,242.656982 &#xA;&#x9;C126.555901,249.088104 120.299400,254.570084 114.592438,260.483337 &#xA;&#x9;C114.111763,260.203735 113.631096,259.924133 113.150429,259.644501 &#xA;&#x9;C113.150429,257.280762 112.805725,254.854889 113.218338,252.565491 &#xA;&#x9;C114.248192,246.851212 115.749550,241.222946 116.825027,235.515579 &#xA;&#x9;C118.104141,228.727524 121.723602,223.656021 127.726547,219.742920 &#xA;z"/>
  <path fill="#DAB96F" stroke="none" d="&#xA;M147.961563,170.951172 &#xA;&#x9;C136.376175,180.595566 124.313538,188.573013 108.102539,192.024292 &#xA;&#x9;C123.739204,168.982574 139.472885,148.038818 162.451553,132.574142 &#xA;&#x9;C162.451553,133.930359 162.578003,134.510071 162.432617,135.010880 &#xA;&#x9;C160.181320,142.765625 157.440262,150.414093 155.775803,158.290710 &#xA;&#x9;C154.662048,163.561234 152.108551,167.407837 147.961563,170.951172 &#xA;z"/>
  <path fill="#DBBB73" stroke="none" d="&#xA;M371.638550,460.314453 &#xA;&#x9;C371.694977,461.389954 371.663910,462.759949 371.283600,462.864990 &#xA;&#x9;C366.595917,464.159241 363.610535,462.474213 361.604340,457.608704 &#xA;&#x9;C357.972076,448.799683 357.972076,448.799683 348.472198,448.799683 &#xA;&#x9;C347.972260,448.799683 347.472260,448.793396 346.972412,448.800598 &#xA;&#x9;C337.002655,448.944397 339.491882,447.632172 336.368256,456.292908 &#xA;&#x9;C333.837402,463.310089 332.918823,463.908661 325.959625,462.471649 &#xA;&#x9;C331.719788,445.947021 337.527283,429.376556 343.251465,412.777405 &#xA;&#x9;C344.216705,409.978394 344.994843,407.918915 348.856415,407.814331 &#xA;&#x9;C353.009277,407.701813 353.812988,409.974426 354.843475,412.936798 &#xA;&#x9;C360.309113,428.648773 365.864471,444.329498 371.638550,460.314453 &#xA;M346.184021,425.770111 &#xA;&#x9;C344.457336,431.354126 342.730652,436.938110 340.959869,442.664764 &#xA;&#x9;C346.617371,442.664764 351.473633,442.664764 356.812897,442.664764 &#xA;&#x9;C354.180664,434.569244 351.701324,426.943878 348.820770,418.084595 &#xA;&#x9;C347.711456,421.330872 347.077606,423.185883 346.184021,425.770111 &#xA;z"/>
  <path fill="#DBBA72" stroke="none" d="&#xA;M410.014069,230.982147 &#xA;&#x9;C402.554779,237.898438 392.967987,239.498367 383.528351,241.133133 &#xA;&#x9;C363.252747,244.644516 345.893372,253.807190 330.712463,267.448181 &#xA;&#x9;C330.145172,267.957916 329.457489,268.333649 328.024017,268.127625 &#xA;&#x9;C329.431244,266.244904 330.729706,264.268188 332.263062,262.494537 &#xA;&#x9;C343.200409,249.843155 356.195984,240.085526 371.766510,233.680908 &#xA;&#x9;C385.977753,227.835403 400.879486,223.115936 412.200592,210.556503 &#xA;&#x9;C413.513672,218.035812 412.578156,224.234955 409.960541,230.632553 &#xA;&#x9;C409.983154,231.017639 410.003418,230.993958 410.014069,230.982147 &#xA;z"/>
  <path fill="#DABA72" stroke="none" d="&#xA;M92.967239,453.779175 &#xA;&#x9;C93.165710,454.708160 93.310669,455.535492 93.526978,455.554596 &#xA;&#x9;C101.264999,456.237671 109.087540,457.829712 116.511429,454.091522 &#xA;&#x9;C117.771355,461.869446 116.810898,463.006500 108.672394,463.008301 &#xA;&#x9;C101.034210,463.009979 93.396027,463.008667 85.171860,463.008667 &#xA;&#x9;C85.067375,460.969238 84.902809,459.221466 84.900124,457.473419 &#xA;&#x9;C84.878693,443.494537 84.944847,429.515167 84.832001,415.537170 &#xA;&#x9;C84.813034,413.187897 84.060394,410.844574 83.609276,408.286041 &#xA;&#x9;C93.710426,408.286041 104.373177,408.286041 115.348465,408.286041 &#xA;&#x9;C115.348465,411.133087 115.348465,413.723175 115.348465,415.617523 &#xA;&#x9;C111.905815,415.013336 108.422913,414.143524 104.892342,413.852997 &#xA;&#x9;C101.135666,413.543915 97.333832,413.783447 93.378494,413.783447 &#xA;&#x9;C93.181946,415.111267 92.969566,415.900757 92.963799,416.691803 &#xA;&#x9;C92.931168,421.171967 92.948006,425.652527 92.948006,430.836029 &#xA;&#x9;C99.260925,430.836029 105.305977,430.836029 111.189781,430.836029 &#xA;&#x9;C112.611748,434.996155 111.841187,436.889923 107.724327,436.758545 &#xA;&#x9;C103.081398,436.610443 98.430099,436.724457 92.946999,436.724457 &#xA;&#x9;C92.946999,442.459595 92.946999,447.880096 92.967239,453.779175 &#xA;z"/>
  <path fill="#DAB970" stroke="none" d="&#xA;M111.801888,208.833679 &#xA;&#x9;C116.415718,198.970306 123.203186,192.101639 132.880508,187.425247 &#xA;&#x9;C140.694000,183.649536 147.693344,178.189026 156.313293,172.669479 &#xA;&#x9;C155.408279,175.915726 155.263336,178.432648 154.095840,180.315552 &#xA;&#x9;C141.949188,199.905273 126.709679,216.571335 107.186134,229.086227 &#xA;&#x9;C106.793358,229.338028 106.273285,229.391220 104.945953,229.811462 &#xA;&#x9;C105.537781,222.059357 109.018074,215.740631 111.801888,208.833679 &#xA;z"/>
  <path fill="#DAB970" stroke="none" d="&#xA;M362.074951,274.967987 &#xA;&#x9;C376.577454,274.719635 389.028076,280.162933 402.028046,285.483856 &#xA;&#x9;C400.687286,287.765900 399.700653,289.667145 398.511414,291.431854 &#xA;&#x9;C392.543732,300.287170 386.683655,301.736572 377.382935,296.577362 &#xA;&#x9;C374.481384,294.967834 371.716888,293.102692 368.941711,291.275482 &#xA;&#x9;C358.032684,284.092987 346.246002,282.445709 333.675018,285.575989 &#xA;&#x9;C333.078918,285.724426 332.447998,285.733246 330.395081,285.979919 &#xA;&#x9;C340.561768,278.751801 350.608276,275.536346 362.074951,274.967987 &#xA;z"/>
  <path fill="#DABA72" stroke="none" d="&#xA;M157.093826,233.049744 &#xA;&#x9;C150.385681,251.821655 139.731476,266.769440 121.514107,275.404327 &#xA;&#x9;C123.883705,266.013519 125.893890,256.612122 132.658615,249.257477 &#xA;&#x9;C144.002151,236.924728 151.974380,222.637192 157.293930,206.805130 &#xA;&#x9;C157.488785,206.225266 157.982574,205.745834 158.395615,205.132645 &#xA;&#x9;C161.064896,209.530243 160.421692,222.667587 157.093826,233.049744 &#xA;z"/>
  <path fill="#DBBA72" stroke="none" d="&#xA;M229.404800,426.622131 &#xA;&#x9;C226.198395,420.269165 223.175766,414.241211 220.208618,408.323975 &#xA;&#x9;C228.737610,407.404846 228.739395,407.403992 232.432938,415.070404 &#xA;&#x9;C235.426163,421.283234 238.414429,427.498444 241.816681,434.568329 &#xA;&#x9;C245.224686,427.163696 248.626297,420.716034 251.167419,413.945404 &#xA;&#x9;C253.107117,408.777191 255.989944,406.802338 261.959290,408.580414 &#xA;&#x9;C258.913635,414.690948 256.433594,421.045227 252.800385,426.652313 &#xA;&#x9;C246.378754,436.562866 243.772034,447.118317 245.050995,458.762970 &#xA;&#x9;C245.174835,459.890564 244.951569,461.056244 244.867859,462.602783 &#xA;&#x9;C242.402725,462.602783 240.044159,462.602783 236.837753,462.602783 &#xA;&#x9;C238.169540,449.898132 237.210648,437.663910 229.404800,426.622131 &#xA;z"/>
  <path fill="#DBBB73" stroke="none" d="&#xA;M51.039528,419.127686 &#xA;&#x9;C50.938766,417.193115 50.838009,415.743744 50.669266,413.316406 &#xA;&#x9;C45.638031,413.969421 41.016956,414.569214 36.351158,415.174805 &#xA;&#x9;C36.351158,413.790131 36.351158,411.219330 36.351158,408.324707 &#xA;&#x9;C48.825150,408.324707 61.053181,408.324707 73.675812,408.324707 &#xA;&#x9;C73.675812,410.943604 73.675812,413.513824 73.675812,415.181763 &#xA;&#x9;C69.332390,414.588989 64.694283,413.956024 59.303505,413.220306 &#xA;&#x9;C59.303505,430.196350 59.303505,446.233734 59.303505,462.637024 &#xA;&#x9;C56.309338,462.637024 53.946400,462.637024 51.039536,462.637024 &#xA;&#x9;C51.039536,448.152405 51.039536,433.882629 51.039528,419.127686 &#xA;z"/>
  <path fill="#DAB970" stroke="none" d="&#xA;M301.010376,414.119843 &#xA;&#x9;C301.010376,428.211639 301.010376,441.820526 301.010376,456.140106 &#xA;&#x9;C308.338165,455.413208 315.562195,458.587830 322.062775,453.688354 &#xA;&#x9;C323.824677,460.381287 321.896118,462.996185 314.983704,463.003540 &#xA;&#x9;C307.872681,463.011078 300.761658,463.005157 292.660645,463.005157 &#xA;&#x9;C292.660645,444.521667 292.660645,426.526581 292.660645,408.291565 &#xA;&#x9;C294.528748,408.291565 297.404968,408.291565 301.010345,408.291565 &#xA;&#x9;C301.010345,410.116089 301.010345,411.876526 301.010376,414.119843 &#xA;z"/>
  <path fill="#FEFCF9" stroke="none" d="&#xA;M189.213455,413.787384 &#xA;&#x9;C192.343414,413.809021 195.006317,413.751709 197.659653,413.884979 &#xA;&#x9;C202.148865,414.110535 205.264847,416.162354 206.055298,420.841675 &#xA;&#x9;C206.932648,426.035492 204.929657,430.255859 200.195389,431.575287 &#xA;&#x9;C196.593887,432.578979 192.682571,432.610138 188.898987,432.717285 &#xA;&#x9;C188.022522,432.742065 186.364365,431.348083 186.327133,430.548279 &#xA;&#x9;C186.095673,425.575897 186.133789,420.583038 186.342743,415.607910 &#xA;&#x9;C186.369522,414.970856 187.905350,414.397156 189.213455,413.787384 &#xA;z"/>
  <path fill="#FEFCF9" stroke="none" d="&#xA;M153.110413,415.717682 &#xA;&#x9;C158.492752,422.894226 156.240891,429.830688 148.169357,432.140503 &#xA;&#x9;C147.215744,432.413422 146.246765,432.692719 145.266266,432.802307 &#xA;&#x9;C136.401901,433.793365 136.061951,433.478271 136.061935,424.551544 &#xA;&#x9;C136.061935,421.254211 136.061920,417.956909 136.061920,413.141632 &#xA;&#x9;C141.994507,413.967102 147.391922,414.718079 153.110413,415.717682 &#xA;z"/>
  <path fill="#FFFEFD" stroke="none" d="&#xA;M445.938873,427.009338 &#xA;&#x9;C445.938812,422.545837 445.938812,418.580719 445.938812,414.738556 &#xA;&#x9;C457.232025,411.510254 466.480469,416.496033 468.507812,427.339264 &#xA;&#x9;C469.433075,432.287964 469.423431,437.708313 468.469208,442.650452 &#xA;&#x9;C466.407471,453.329163 458.620178,457.668488 445.938934,455.633575 &#xA;&#x9;C445.938934,446.342590 445.938934,436.925171 445.938873,427.009338 &#xA;z"/>
  <path fill="#FEFCF9" stroke="none" d="&#xA;M346.313873,425.405487 &#xA;&#x9;C347.077606,423.185883 347.711456,421.330872 348.820770,418.084595 &#xA;&#x9;C351.701324,426.943878 354.180664,434.569244 356.812897,442.664764 &#xA;&#x9;C351.473633,442.664764 346.617371,442.664764 340.959869,442.664764 &#xA;&#x9;C342.730652,436.938110 344.457336,431.354126 346.313873,425.405487 &#xA;z"/>
</svg>