<?xml version="1.0" encoding="UTF-8" standalone="yes"?>
<svg xml:space="preserve" baseProfile="tiny-ps" viewBox="0 0 512 512" version="1.2" xmlns="http://www.w3.org/2000/svg">
  <title>bimi-svg-tiny-12-ps</title>
  <path fill="#fffffe" d="M302 513H1.037V1.1h511.801V513zm62.866-134.92c5.846 8.893 11.83 17.698 17.462 26.724 1.954 3.13 3.984 4.023 7.547 2.45 0-13.52.076-26.982-.135-40.44-.018-1.152-1.94-2.274-2.977-3.41-.924 1.263-2.602 2.498-2.648 3.791-.257 7.315-.123 14.644-.123 21.967v4.429c-6.958-8.618-12.833-17.266-18.237-26.198-2.45-4.05-5.299-4.88-8.613-3.713v44.391l6.523-.36c0-10.135 0-19.764.33-29.715 0 0 .325-.329.871.085M153.487 163.09c4.261-8.25 7.42-17.345 12.973-24.608C191.31 105.977 223.9 88 265.573 89.887c25.114 1.137 47.453 10.637 65.754 27.848 25.032 23.541 37.123 53.008 36.967 87.428-.008 1.703 0 3.407 0 5.11l1.934.268c.555-2.145 1.541-4.278 1.6-6.436.647-23.73-6.522-45.382-18.89-65.22-32.682-52.425-99.734-68.675-152.426-36.717-23.238 14.094-40.55 33.757-49.809 59.78-.414 1.165.192 2.691.442 4.758l-15.31 21.12.823 1.056c1.526-.41 3.206-.539 4.551-1.278 7.96-4.373 16.08-8.522 23.671-13.476 5.641-3.682 9.885-8.64 9.482-16.401-.153-2.956 1.572-6.039 2.575-9.018.804-2.387 1.813-4.706 2.73-7.055-10.376 5.83-18.711 13.527-26.18 21.438m160.882 86.811c-1.538 2.741-2.592 5.95-4.705 8.134-5.725 5.914-11.899 11.392-18.355 17.476 1.69-.406 3.129-.37 4.063-1.04 6.853-4.907 13.993-9.513 20.303-15.056 11.33-9.952 24.045-16.614 39.017-18.637 6.413-.867 12.895-1.213 19.335-1.891 7.087-.746 9.712-3.644 9.723-10.532.004-3.15 0-6.298 0-9.412l-2.785-.47c.355-4.064.847-7.627.835-11.189-.003-.76-1.834-1.514-2.725-3.01.883-2.534 2.451-5.054 2.504-7.605.105-5.132-.15-10.366-1.07-15.41-7.486-41.013-29.18-71.917-66.058-91.795-20.334-10.961-42.13-15.43-65.087-13.379-9.209.823-18.715 1.646-27.388 4.551-36.683 12.291-63.058 36.386-78.413 72.007-3.542 8.217-5.671 17.043-8.45 25.588l2.097.975c1.783-2.967 4.273-5.722 5.234-8.935 7.213-24.112 20.218-44.428 39.303-60.777 18.83-16.132 40.467-26.3 65.287-28.494 36.947-3.268 68.197 9.932 93.888 35.72 23.205 23.294 36.387 51.418 35.477 85.117-.037 1.365 1.051 2.76 1.775 4.854-6.268 3.846-12.165 8.597-18.88 11.357-15.65 6.434-30.589 13.651-41.62 27.022-1.176 1.426-1.81 3.299-2.659 4.946 0 0 .008-.04-.646-.115m41.302 25.823c9.17.877 14.434-2.54 16.948-11.004-19.809-11.444-46.6-11.429-55.757.338 1.733-.34 3.17-.696 4.628-.896 13.105-1.802 24.102 2.359 32.433 11.537-1.618.718-3.639 1.048-4.776 2.23-3.22 3.344-5.83 7.289-9.121 10.552-24.756 24.55-54.506 36.109-89.416 33.812-28.925-1.902-53.9-13.181-74.262-33.562-9.185-9.194-16.55-20.208-25.237-31.014l-4.21 1.804c6.462 9.12 11.752 18.274 18.637 26.01 28.818 32.373 65.119 46.317 108.19 41.268 33.29-3.903 59.707-20.33 80.135-46.637.787-1.012.581-2.795 1.808-4.438m-103.63-88.378c3.32-10.426 1.594-17.776-4.845-19.508.121.726.098 1.388.342 1.929 5.867 12.974-.552 25.436-14.56 28.222-12.803 2.546-22.107-3.678-23.115-15.463-1.33-15.545 10.602-30.76 26.199-31.478 13.712-.631 27.516.514 41.269 1.126 3.276.146 6.508 1.29 9.547 1.931-4.687 7.007-9.845 12.925-12.975 19.77-6.768 14.804-12.66 30.02-18.6 45.188-5.373 13.722-11.106 27.146-22.105 37.524-9.452 8.917-20.674 11.12-29.551 5.75-10.472-6.334-14.303-16.54-11.04-29.4 3.205-12.627 13.715-22.672 24.71-22.873 12.451-.229 21.104 8.08 16.396 21.006-.35.96-.272 2.076-.393 3.12l1.206.537c.979-1.496 2.363-2.867 2.87-4.509 3.328-10.78-4.453-22.061-15.795-23.119-14.143-1.319-25.402 5.862-30.903 20.202-4.4 11.471-3.965 22.791 4.127 32.527 8.08 9.724 19.138 10.67 30.642 8.045 12.878-2.938 22-11.427 29.688-21.56 10.045-13.24 15.131-28.69 19.833-44.421 4.085-13.67 8.96-27.14 14.208-40.413 2.687-6.796 5.166-7.036 12.305-6.21 5.584.645 11.366.897 16.917.193 7.309-.927 14.415-3.254 19.364-9.28 1.782-2.17 2.758-5.002 4.101-7.532q-.705-.436-1.408-.873c-.994.769-1.89 1.747-3 2.268-3.832 1.796-7.7 4.755-11.623 4.866-9.431.267-18.91-.704-28.353-1.405-14.068-1.046-28.105-2.822-42.188-3.279-11.132-.36-21.72 3.07-31.45 8.565-9.735 5.5-16.772 13.273-18.218 24.8-1.192 9.5.143 18.437 8.787 24.445 12.167 8.456 29.79 3.666 37.611-10.69m-58.7 12.383c-.674-11.892-1.055-23.808-2.1-35.667-1.148-13.01.237-24.671 13.105-31.773.13-.072.016-.587.016-.892-6.95-.804-14.238 2.491-19.103 8.45-8.104 9.925-8.891 21.506-7.693 33.531 1.151 11.553 2.885 23.073 3.417 34.651.313 6.8-1.219 13.684-1.905 20.375 5.58-3.396 11.054-14.138 14.263-28.675m56.61 114.182c-10.317-2.402-21.068-3.673-30.866-7.43-24.68-9.464-43.867-25.965-57.456-48.79-.848-1.423-2.023-2.651-3.046-3.97l-1.472.694c.318 1.396.274 3.033 1.016 4.147 4.141 6.215 7.779 12.959 12.853 18.327 30.684 32.461 67.492 47.809 112.408 37.865 25.224-5.585 45.924-18.885 61.756-39.446.679-.881.475-2.443.682-3.688-1.058.57-2.408.894-3.131 1.748-24.047 28.401-54.583 42.077-92.743 40.543m-46.63 49.456h-11.317v44.344h6.983v-18.51l1.393-1.186c1.751 1.192 3.951 2.044 5.164 3.645 2.7 3.562 4.895 7.507 7.318 11.281 3.533 5.501 4.608 5.907 10.828 4.488l-12.469-18.967c2.106-1.194 3.568-1.931 4.935-2.816 4.237-2.742 6.403-7.756 5.492-12.468-1.019-5.266-4.538-7.964-9.487-8.961-2.587-.521-5.267-.581-8.84-.85m222.947 40.526c10.565-9.464 12.98-19.41 5.762-30.984-5.08-8.145-20.18-12.404-30.076-8.784v43.518c8.656.732 16.528 1.245 24.314-3.75m-251.586-9.117-3.956-6.571c1.373-.763 2.362-1.305 3.345-1.859 5.871-3.306 8.159-8.164 6.665-14.147-1.203-4.816-5.566-8-11.8-8.186-6.097-.182-12.203-.04-17.673-.04v43.671h7.372c0-4.996-.146-9.64.081-14.267.076-1.561 1.096-3.077 1.684-4.613 1.58.912 3.662 1.459 4.641 2.807 2.732 3.758 4.954 7.883 7.475 11.801 3.114 4.84 5.744 5.665 10.476 3.84-2.605-3.869-5.278-7.838-8.31-12.436m.865-206.464-.558-4.415c-1.873 2.452-2.782 3.81-3.856 5.023-6.687 7.545-12.62 16.018-20.313 22.349-10.751 8.85-9.46 20.828-11.303 32.29 18.748-13.81 29.38-32.783 36.03-55.247m192.282 71.49c3.298 1.109 7.07 2.992 9.62-.522 4.149-5.72 6.17-12.273 5.386-19.207-19.483 3.165-39.93 1.043-56.166 14.846 14.02-2.69 27.532-1.78 41.16 4.883M316.657 394.02l-5.05 13.42c6.224 1.207 7.278.91 8.834-5.143 1.13-4.394 3.213-6.179 7.614-5.45.972.16 2.017.165 2.987 0 5.05-.857 8.118.834 9.236 6.164 1.04 4.962 4.534 5.986 8.86 4.607-4.664-13.351-9.209-26.681-14.073-39.894-.646-1.755-3.081-4.211-4.387-4.04-1.87.244-4.324 2.281-5.026 4.125-3.195 8.381-5.863 16.963-8.995 26.211m-189.863 8.989c-1.257-.93-3.497-1.763-3.6-2.807-.415-4.218-.172-8.5-.172-13.199 4.503 0 8.315.187 12.09-.107 1.223-.095 2.348-1.447 3.518-2.225-1.175-.833-2.3-2.285-3.534-2.384-3.884-.312-7.81-.115-11.698-.115v-13.94l17.902 1.718c-.496-1.55 2.723-6.02-2.418-6.42-7.738-.603-15.559-.157-22.83-.157v44.657c7.522 0 14.3.03 21.077-.01 5.48-.033 6.54-1.707 4.754-7.555-4.125 4.276-9.385 1.952-15.09 2.544M146.2 210.707c8.72-10.172 17.504-20.29 26.082-30.58 1.165-1.396 1.294-3.658 1.902-5.519-6.767 3.084-12.067 7.548-18.146 10.27-10.613 4.751-16.44 13.017-20.145 23.4-1.223 3.425-2.428 6.856-3.64 10.284l1.632 1.207c3.91-2.888 7.819-5.777 12.315-9.062m28.66-9.223c-3.677 11.198-9.038 21.525-16.903 30.317-6.374 7.126-10.011 15.403-12.598 25.632 2.945-1.541 5.212-2.407 7.115-3.777 10.75-7.739 18.287-18.095 22.229-30.575 2.059-6.518 2.206-13.678 2.87-20.581.256-2.67-.18-2.713-2.714-1.016m61.502 168.581c-3.594-7.579-4.114-7.86-10.655-5.885 7.172 13.645 17.117 26.37 13.231 43.407 2 .219 2.971.42 3.94.407 1.11-.016 2.218-.224 4.364-.465-4.56-16.944 6.956-29.159 12.647-43.258-4.306-1.747-6.58-.807-8.18 3.21-2.248 5.646-5.107 11.05-8.128 17.455-2.587-5.345-4.73-9.774-7.219-14.87M89.11 375.58v32.186h6.564c.087-1.85.226-3.465.23-5.08.02-9.14.008-18.28.01-27.42.002-6.674 3.508-8.697 9.633-5.565.63.322 1.266.637 2.695 1.355-1.11-3.216 1.805-7.402-3.342-7.6-8.432-.324-16.885-.087-25.577-.087v5.154l9.787.569zm195.873 11.92v20.53c6.529 0 12.18.013 17.832-.004 5.991-.017 7.183-1.661 5.661-7.744-4.897 4.927-10.715 2.035-16.617 2.609v-32.616c0-7.449-.216-7.621-6.876-6.64z"/>
  <path fill="#dcbc76" d="M251.886 187.697c-7.666 14.008-25.29 18.798-37.456 10.342-8.644-6.008-9.98-14.944-8.787-24.445 1.446-11.527 8.483-19.3 18.219-24.8 9.728-5.496 20.317-8.926 31.45-8.565 14.082.457 28.119 2.233 42.187 3.279 9.443.701 18.922 1.672 28.353 1.405 3.923-.11 7.791-3.07 11.622-4.866 1.11-.52 2.007-1.5 3.001-2.268l1.408.873c-1.343 2.53-2.319 5.362-4.101 7.532-4.949 6.026-12.055 8.353-19.364 9.28-5.551.704-11.333.452-16.917-.194-7.139-.825-9.618-.585-12.305 6.211-5.247 13.273-10.123 26.743-14.208 40.413-4.702 15.73-9.788 31.181-19.833 44.421-7.687 10.133-16.81 18.622-29.688 21.56-11.504 2.625-22.561 1.68-30.642-8.045-8.092-9.736-8.527-21.056-4.127-32.527 5.5-14.34 16.76-21.52 30.903-20.202 11.342 1.058 19.123 12.338 15.795 23.12-.507 1.641-1.891 3.012-2.87 4.508l-1.206-.537c.12-1.044.043-2.16.393-3.12 4.708-12.926-3.945-21.235-16.396-21.006-10.995.201-21.505 10.246-24.71 22.873-3.263 12.86.568 23.066 11.04 29.4 8.877 5.37 20.099 3.167 29.55-5.75 11-10.378 16.733-23.802 22.106-37.524 5.94-15.169 11.832-30.384 18.6-45.188 3.13-6.845 8.288-12.763 12.975-19.77-3.04-.64-6.271-1.785-9.547-1.931-13.753-.612-27.557-1.757-41.269-1.126-15.597.718-27.529 15.933-26.2 31.478 1.009 11.785 10.313 18.009 23.116 15.463 14.008-2.786 20.427-15.248 14.56-28.222-.244-.541-.22-1.203-.342-1.929 6.439 1.732 8.166 9.082 4.69 19.857"/>
  <path fill="#dcbc77" d="M378.014 205.98c-.564-1.38-1.652-2.776-1.615-4.141.91-33.699-12.272-61.823-35.477-85.117-25.69-25.788-56.941-38.988-93.888-35.72-24.82 2.195-46.457 12.362-65.287 28.494-19.085 16.349-32.09 36.665-39.303 60.777-.961 3.213-3.451 5.968-5.234 8.935l-2.098-.975c2.78-8.545 4.91-17.371 8.451-25.588 15.355-35.621 41.73-59.716 78.413-72.007 8.673-2.905 18.18-3.728 27.388-4.55 22.957-2.051 44.753 2.417 65.087 13.378 36.877 19.878 58.572 50.782 66.058 91.795.92 5.044 1.175 10.278 1.07 15.41-.053 2.551-1.621 5.071-2.543 7.963-.04.358-.012.347-.31.362-.447.352-.595.69-.738 1.014.004-.014.026-.03.026-.03"/>
  <path fill="#dcbd79" d="M354.701 275.944c-.257 1.425-.051 3.208-.838 4.22-20.428 26.307-46.845 42.734-80.136 46.637-43.07 5.05-79.371-8.895-108.189-41.269-6.885-7.735-12.175-16.89-18.637-26.01l4.21-1.803c8.688 10.806 16.052 21.82 25.237 31.014 20.362 20.381 45.337 31.66 74.262 33.562 34.91 2.297 64.66-9.262 89.416-33.812 3.29-3.263 5.9-7.208 9.121-10.553 1.137-1.18 3.158-1.51 5.153-2.11.376.119.401.124.401.124"/>
  <path fill="#dbbb74" d="M314.98 250.036c.884-1.665 1.518-3.538 2.694-4.964 11.031-13.37 25.97-20.588 41.62-27.022 6.715-2.76 12.612-7.51 18.8-11.713-.08-.357-.102-.34.205-.317.446-.33.585-.684.725-1.039 0 0-.028.01-.037.022.98.769 2.81 1.523 2.813 2.283.012 3.562-.48 7.125-.835 11.189l2.785.47c0 3.114.004 6.263 0 9.412-.011 6.888-2.636 9.786-9.723 10.532-6.44.678-12.922 1.024-19.335 1.891-14.972 2.023-27.687 8.685-39.017 18.637-6.31 5.543-13.45 10.15-20.303 15.057-.934.669-2.374.633-4.063 1.04 6.456-6.085 12.63-11.563 18.355-17.477 2.113-2.183 3.167-5.393 5-7.733 1.343.326 2.623.613 3.405.116 5.326-3.383 10.4-7.182 15.832-10.373 10.648-6.253 22.634-8.495 34.51-11.109 3.423-.753 6.562-2.795 9.831-4.246l-.578-1.143c-22.262 5.6-45.292 9.387-62.685 26.487"/>
  <path fill="#dec181" d="M151.026 165.997c-.13-1.358-.737-2.884-.323-4.048 9.258-26.024 26.57-45.687 49.809-59.78 52.692-31.96 119.744-15.71 152.427 36.716 12.367 19.838 19.536 41.49 18.889 65.22-.059 2.158-1.045 4.291-1.6 6.436l-1.935-.268c0-1.703-.007-3.407.001-5.11.156-34.42-11.935-63.887-36.967-87.428-18.3-17.21-40.64-26.711-65.754-27.848-41.674-1.886-74.263 16.09-99.113 48.596-5.553 7.263-8.712 16.357-12.913 25.037.06.428-.006.471-.372.441-.641.338-.916.705-1.19 1.049.003-.024.05-.02-.246-.001-.444.353-.593.689-.745 1.007-.002-.018.032-.019.032-.019"/>
  <path fill="#dbba72" d="M193.224 200.151c-3.092 14.118-8.567 24.86-14.146 28.256.686-6.69 2.218-13.575 1.905-20.375-.532-11.578-2.266-23.098-3.417-34.65-1.198-12.026-.41-23.607 7.693-33.532 4.865-5.959 12.153-9.254 19.103-8.45 0 .305.114.82-.016.892-12.868 7.102-14.253 18.764-13.106 31.773 1.046 11.859 1.427 23.775 1.984 36.086"/>
  <path fill="#dec181" d="M250.412 313.964c37.7 1.484 68.236-12.192 92.283-40.593.723-.854 2.073-1.177 3.131-1.748-.207 1.245-.003 2.807-.682 3.688-15.832 20.56-36.532 33.861-61.756 39.446-44.916 9.944-81.724-5.404-112.408-37.865-5.074-5.368-8.712-12.112-12.853-18.327-.742-1.114-.698-2.751-1.016-4.147l1.472-.694c1.023 1.319 2.198 2.547 3.046 3.97 13.589 22.825 32.776 39.326 57.456 48.79 9.798 3.757 20.55 5.028 31.327 7.48"/>
  <path fill="#dcbe79" d="M363.665 378.319v29.392l-6.523.36v-44.39c3.314-1.168 6.163-.337 8.613 3.712 5.404 8.932 11.28 17.58 18.237 26.198v-4.429c0-7.323-.134-14.652.123-21.967.046-1.293 1.724-2.528 2.648-3.79 1.037 1.135 2.959 2.257 2.977 3.409.21 13.458.135 26.92.135 40.44-3.563 1.573-5.593.68-7.547-2.45-5.631-9.026-11.616-17.831-17.89-27.097-.542-.045-.658.283-.773.612"/>
  <path fill="#dcbc77" d="M203.79 363.37c3.105.269 5.785.329 8.372.85 4.949.997 8.468 3.695 9.487 8.961.91 4.712-1.255 9.726-5.492 12.468-1.367.885-2.83 1.622-4.935 2.816l12.47 18.967c-6.221 1.419-7.296 1.013-10.829-4.488-2.423-3.774-4.618-7.719-7.318-11.281-1.213-1.6-3.413-2.453-5.164-3.645l-1.393 1.186v18.51h-6.983V363.37zm3.046 20.44c6.312-1.886 9.103-5.41 7.925-10.003-1.24-4.83-7.235-6.776-15.528-4.938v15.017c2.503 0 4.628 0 7.603-.076"/>
  <path fill="#dcbd79" d="M425.972 404.112c-7.49 4.78-15.36 4.266-24.017 3.534v-43.518c9.896-3.62 24.996.639 30.076 8.784 7.219 11.574 4.803 21.52-6.059 31.2m-17.077-29.504v28.138c7.223.709 13.17-.048 16.411-6.252 3.953-7.568 3.863-15.56-.635-22.804-3.435-5.53-9.32-5.473-15.457-4.555-.114 1.6-.217 3.05-.32 5.473"/>
  <path fill="#dbbb74" d="M174.863 395.094c2.852 4.283 5.525 8.252 8.13 12.121-4.732 1.825-7.362 1-10.476-3.84-2.52-3.918-4.743-8.043-7.475-11.801-.98-1.348-3.062-1.895-4.64-2.807-.59 1.536-1.609 3.052-1.685 4.613-.227 4.626-.081 9.27-.081 14.267h-7.372v-43.67c5.47 0 11.576-.143 17.672.039 6.235.186 10.598 3.37 11.8 8.186 1.495 5.983-.793 10.841-6.664 14.147-.983.554-1.972 1.096-3.345 1.859 1.426 2.368 2.69 4.47 4.136 6.886m-15.941-11.495c3.445-.187 6.985.057 10.31-.674 3.753-.825 5.06-3.857 4.904-7.65-.144-3.517-1.885-5.802-5.177-6.379-3.467-.607-7.045-.58-10.66-.837 0 5.622 0 10.259.623 15.54"/>
  <path fill="#dbba72" d="M175.44 188.686c-6.542 22.093-17.174 41.066-35.922 54.876 1.843-11.462.552-23.44 11.303-32.29 7.693-6.331 13.626-14.804 20.313-22.35 1.074-1.211 1.983-2.57 3.856-5.022.288 2.275.423 3.345.45 4.786M153.54 163.991s.067-.043.063-.023c7.353-8.787 15.688-16.485 26.064-22.314-.917 2.35-1.926 4.668-2.73 7.055-1.003 2.98-2.728 6.062-2.575 9.018.403 7.762-3.84 12.72-9.482 16.4-7.59 4.955-15.71 9.104-23.67 13.477-1.346.74-3.026.867-4.552 1.278l-.823-1.057c5.103-7.04 10.207-14.079 15.25-21.473-.06-.355-.093-.354.201-.355.446-.336.598-.671.749-1.006 0 0-.047-.005.28-.023.626-.338.926-.657 1.226-.977M367.463 259.638c-13.261-6.496-26.774-7.406-40.793-4.716 16.235-13.803 36.683-11.681 56.166-14.846.784 6.934-1.237 13.487-5.386 19.207-2.55 3.514-6.322 1.63-9.987.355"/>
  <path fill="#dcbc77" d="M316.794 393.65c2.995-8.878 5.663-17.46 8.858-25.841.702-1.844 3.156-3.881 5.026-4.126 1.306-.17 3.741 2.286 4.387 4.041 4.864 13.213 9.409 26.543 14.073 39.894-4.326 1.38-7.82.355-8.86-4.607-1.118-5.33-4.186-7.02-9.236-6.164-.97.165-2.015.16-2.987 0-4.401-.729-6.485 1.056-7.614 5.45-1.556 6.054-2.61 6.35-8.833 5.142zm18.95-2.131-4.77-18.243-1.395.142-5.722 18.54c4.22 0 7.673 0 11.887-.44"/>
  <path fill="#dcbe79" d="M127.262 403.01c5.236-.593 10.496 1.731 14.621-2.545 1.785 5.848.727 7.522-4.754 7.555-6.777.04-13.555.01-21.076.01v-44.657c7.27 0 15.09-.446 22.83.157 5.14.4 1.921 4.87 2.417 6.42l-17.902-1.719v13.94c3.888 0 7.814-.196 11.698.116 1.234.099 2.36 1.551 3.534 2.384-1.17.778-2.295 2.13-3.518 2.225-3.775.294-7.587.107-12.09.107 0 4.699-.243 8.981.173 13.199.102 1.044 2.342 1.877 4.067 2.808"/>
  <path fill="#dbba72" d="M145.906 210.906a5111 5111 0 0 0-12.021 8.863l-1.632-1.207c1.212-3.428 2.417-6.859 3.64-10.283 3.705-10.384 9.532-18.65 20.145-23.401 6.08-2.722 11.38-7.186 18.146-10.27-.608 1.861-.737 4.123-1.902 5.52-8.578 10.29-17.362 20.407-26.376 30.778"/>
  <path fill="#dbbb74" d="M355.186 275.835c-.485.11-.51.104-.497.121-9.097-9.433-20.094-13.594-33.2-11.792-1.457.2-2.894.556-4.627.896 9.158-11.767 35.948-11.782 55.757-.338-2.514 8.463-7.778 11.88-17.433 11.113"/>
  <path fill="#dbba72" d="M174.96 201.135c2.432-1.348 2.87-1.306 2.613 1.365-.664 6.903-.811 14.063-2.87 20.581-3.942 12.48-11.48 22.836-22.23 30.575-1.902 1.37-4.169 2.236-7.114 3.777 2.587-10.23 6.224-18.506 12.598-25.632 7.865-8.792 13.226-19.119 17.003-30.666"/>
  <path fill="#dcbc76" d="M236.534 370.4c2.315 4.762 4.459 9.19 7.046 14.536 3.02-6.405 5.88-11.809 8.128-17.455 1.6-4.017 3.874-4.957 8.18-3.21-5.69 14.1-17.207 26.314-12.647 43.258-2.146.241-3.254.449-4.364.465-.969.014-1.94-.188-3.94-.407 3.886-17.037-6.059-29.762-13.23-43.407 6.54-1.975 7.06-1.694 10.827 6.22"/>
  <path fill="#dcbe79" d="M89.11 375.093v-6.001l-9.788-.57v-5.153c8.692 0 17.145-.237 25.577.088 5.147.197 2.232 4.383 3.342 7.6-1.43-.72-2.064-1.034-2.695-1.356-6.125-3.132-9.631-1.109-9.633 5.564-.002 9.14.01 18.281-.01 27.421-.004 1.615-.143 3.23-.23 5.08h-6.564zM284.982 387v-23.365c6.66-.981 6.876-.809 6.876 6.64v32.616c5.902-.574 11.72 2.318 16.617-2.61 1.522 6.084.33 7.728-5.661 7.745-5.652.017-11.303.004-17.832.004z"/>
  <path fill="#fffffe" d="M378.726 204.996c.158.34.019.694-.431 1.038-.164-.348-.016-.686.43-1.038"/>
  <path fill="#f8f3e6" d="M314.997 250.027c17.375-17.09 40.405-20.877 62.667-26.478l.578 1.143c-3.269 1.451-6.408 3.493-9.83 4.246-11.877 2.614-23.863 4.856-34.51 11.11-5.434 3.19-10.507 6.989-15.833 10.372-.782.497-2.062.21-3.078-.078.032-.363.024-.324.006-.315"/>
  <path fill="#fffffe" d="M153.175 163.961c.066.35-.234.67-.862 1.03-.054-.325.22-.692.862-1.03M151.74 165.009q.214.475-.45 1.006-.217-.476.45-1.006M363.83 378.157c-.05-.167.066-.495.336-.657.154.167-.17.496-.336.657"/>
  <path fill="#fdfbf6" d="M206.41 383.848c-2.55.038-4.675.038-7.178.038v-15.017c8.293-1.838 14.289.108 15.528 4.938 1.178 4.594-1.613 8.117-8.35 10.04"/>
  <path fill="#fefdfb" d="M408.894 374.122c.103-1.937.206-3.387.32-4.987 6.136-.918 12.022-.975 15.457 4.555 4.498 7.243 4.588 15.236.635 22.804-3.241 6.204-9.188 6.96-16.411 6.252z"/>
  <path fill="#fdfbf6" d="M158.61 383.277c-.312-4.959-.312-9.596-.312-15.218 3.616.257 7.194.23 10.661.837 3.292.577 5.033 2.862 5.177 6.379.156 3.793-1.15 6.825-4.904 7.65-3.325.731-6.865.487-10.622.352M335.364 391.74c-3.834.22-7.287.22-11.507.22l5.722-18.541 1.394-.142c1.59 6.081 3.18 12.162 4.391 18.462"/>
</svg>