<?xml version="1.0" encoding="UTF-8" standalone="yes"?>
<svg version="1.2" width="100%" viewBox="0 0 512 512" xml:space="preserve" baseProfile="tiny-ps" xmlns="http://www.w3.org/2000/svg">
  <title>bimi-svg-tiny-12-ps</title>
  <path fill="#FFFFFE" stroke="none" d="&#xA;M302.000000,513.000000 &#xA;&#x9;C201.357773,513.000000 101.215538,513.000000 1.036655,513.000000 &#xA;&#x9;C1.036655,342.399414 1.036655,171.798813 1.036655,1.099110 &#xA;&#x9;C171.558914,1.099110 342.117889,1.099110 512.838440,1.099110 &#xA;&#x9;C512.838440,171.666550 512.838440,342.333252 512.838440,513.000000 &#xA;&#x9;C442.798798,513.000000 372.649384,513.000000 302.000000,513.000000 &#xA;M364.865997,378.080688 &#xA;&#x9;C370.712006,386.972565 376.696899,395.777802 382.328156,404.803650 &#xA;&#x9;C384.281525,407.934448 386.311523,408.826599 389.875061,407.254883 &#xA;&#x9;C389.875061,393.734161 389.950775,380.271790 389.740082,366.813904 &#xA;&#x9;C389.722015,365.662140 387.800262,364.540161 386.762848,363.404327 &#xA;&#x9;C385.838745,364.666534 384.160767,365.902252 384.115295,367.195404 &#xA;&#x9;C383.857910,374.510071 383.991791,381.838531 383.992371,389.162292 &#xA;&#x9;C383.992493,390.638519 383.992401,392.114716 383.992401,393.590942 &#xA;&#x9;C377.034119,384.972717 371.159454,376.325073 365.754700,367.393036 &#xA;&#x9;C363.304535,363.343811 360.456146,362.513092 357.141785,363.680450 &#xA;&#x9;C357.141785,378.683655 357.141785,393.194336 357.141785,408.071228 &#xA;&#x9;C359.764709,407.926300 361.488678,407.831055 363.665314,407.710815 &#xA;&#x9;C363.665314,397.575653 363.665314,387.947205 363.995483,377.995514 &#xA;&#x9;C363.995483,377.995514 364.320435,377.667023 364.865997,378.080688 &#xA;M153.487091,163.091614 &#xA;&#x9;C157.748138,154.840347 160.906921,145.746429 166.459854,138.482788 &#xA;&#x9;C191.310226,105.976639 223.899124,88.001236 265.573273,89.887405 &#xA;&#x9;C290.686768,91.024033 313.026215,100.524292 331.327332,117.735397 &#xA;&#x9;C356.358978,141.276138 368.449768,170.743057 368.294159,205.162506 &#xA;&#x9;C368.286469,206.866135 368.293152,208.569809 368.293152,210.273468 &#xA;&#x9;C368.938202,210.362564 369.583221,210.451645 370.228271,210.540741 &#xA;&#x9;C370.783447,208.395981 371.768951,206.262939 371.827820,204.104645 &#xA;&#x9;C372.475220,180.374100 365.306396,158.722992 352.938812,138.884796 &#xA;&#x9;C320.255768,86.459694 253.204269,70.209862 200.511780,102.168137 &#xA;&#x9;C177.273666,116.262169 159.961349,135.924805 150.703461,161.948822 &#xA;&#x9;C150.289398,163.112732 150.895172,164.639435 151.145462,166.706299 &#xA;&#x9;C146.041962,173.745956 140.938446,180.785614 135.834946,187.825287 &#xA;&#x9;C136.109344,188.177505 136.383728,188.529739 136.658127,188.881958 &#xA;&#x9;C138.183655,188.471481 139.864197,188.343140 141.209229,187.604156 &#xA;&#x9;C149.169052,183.230896 157.289810,179.081833 164.880356,174.127914 &#xA;&#x9;C170.521301,170.446411 174.765106,165.488602 174.362152,157.726883 &#xA;&#x9;C174.208679,154.770538 175.933517,151.688477 176.937210,148.709167 &#xA;&#x9;C177.741470,146.321869 178.749680,144.003265 179.667374,141.654175 &#xA;&#x9;C169.291183,147.483109 160.955658,155.180939 153.487091,163.091614 &#xA;M314.368896,249.903091 &#xA;&#x9;C312.831482,252.644455 311.777283,255.853561 309.663605,258.037109 &#xA;&#x9;C303.939331,263.950653 297.765106,269.428680 291.309021,275.513306 &#xA;&#x9;C292.998260,275.106506 294.437683,275.142761 295.372040,274.473694 &#xA;&#x9;C302.224976,269.566315 309.365265,264.959961 315.675476,259.416840 &#xA;&#x9;C327.004974,249.464600 339.719849,242.802917 354.691895,240.779999 &#xA;&#x9;C361.105042,239.913467 367.586823,239.566727 374.027405,238.888809 &#xA;&#x9;C381.113861,238.142883 383.738647,235.244507 383.749512,228.357086 &#xA;&#x9;C383.754456,225.207840 383.750366,222.058609 383.750366,218.944977 &#xA;&#x9;C382.389130,218.715240 381.282990,218.528564 380.965057,218.474915 &#xA;&#x9;C381.320435,214.411484 381.811829,210.848099 381.799835,207.286407 &#xA;&#x9;C381.797302,206.525894 379.966492,205.771530 379.075043,204.276306 &#xA;&#x9;C379.957672,201.742340 381.526184,199.222443 381.578522,196.671448 &#xA;&#x9;C381.683777,191.539261 381.429565,186.304932 380.509003,181.261444 &#xA;&#x9;C373.023254,140.248260 351.328247,109.344337 314.451141,89.465607 &#xA;&#x9;C294.117493,78.504677 272.321442,74.036674 249.363983,76.087479 &#xA;&#x9;C240.155426,76.910088 230.649017,77.732544 221.976196,80.638397 &#xA;&#x9;C185.292770,92.929268 158.918259,117.023712 143.563416,152.644897 &#xA;&#x9;C140.021439,160.861786 137.891907,169.687531 135.112411,178.233093 &#xA;&#x9;C135.811768,178.558121 136.511124,178.883133 137.210495,179.208145 &#xA;&#x9;C138.992584,176.241028 141.482803,173.485748 142.443878,170.273026 &#xA;&#x9;C149.656891,146.160858 162.662231,125.844963 181.746628,109.495575 &#xA;&#x9;C200.576508,93.364204 222.214218,83.196587 247.034470,81.001663 &#xA;&#x9;C283.980713,77.734390 315.231384,90.933617 340.921631,116.722328 &#xA;&#x9;C364.126648,140.016281 377.309357,168.140015 376.399231,201.838852 &#xA;&#x9;C376.362335,203.203766 377.450256,204.599075 378.174438,206.693130 &#xA;&#x9;C371.905823,210.539413 366.008911,215.289749 359.293915,218.050247 &#xA;&#x9;C343.643555,224.484116 328.705048,231.701080 317.673676,245.072311 &#xA;&#x9;C316.497681,246.497742 315.864471,248.370972 315.015411,250.018173 &#xA;&#x9;C315.015411,250.018173 315.023438,249.978897 314.368896,249.903091 &#xA;M355.670624,275.725983 &#xA;&#x9;C364.841431,276.602722 370.105316,273.185242 372.619446,264.722321 &#xA;&#x9;C352.810150,253.278336 326.019775,253.292999 316.862305,265.059875 &#xA;&#x9;C318.595154,264.720062 320.031769,264.364471 321.489685,264.164062 &#xA;&#x9;C334.595184,262.361938 345.591888,266.522614 353.923004,275.700775 &#xA;&#x9;C352.305420,276.419250 350.284332,276.749146 349.147034,277.930145 &#xA;&#x9;C345.926147,281.274811 343.316711,285.219604 340.025574,288.483490 &#xA;&#x9;C315.270416,313.033295 285.519745,324.591888 250.609665,322.295380 &#xA;&#x9;C221.685242,320.392639 196.709839,309.114014 176.348404,288.733154 &#xA;&#x9;C167.162933,279.538910 159.798691,268.525146 151.111237,257.718811 &#xA;&#x9;C150.911804,257.804260 149.507904,258.405762 146.901382,259.522522 &#xA;&#x9;C153.362823,268.642090 158.653000,277.797180 165.538391,285.532288 &#xA;&#x9;C194.355637,317.905670 230.656601,331.850128 273.727051,326.800995 &#xA;&#x9;C307.018219,322.898285 333.434845,306.471039 353.863373,280.164398 &#xA;&#x9;C354.649872,279.151642 354.444427,277.368591 355.670624,275.725983 &#xA;M252.041443,187.348419 &#xA;&#x9;C255.361633,176.921570 253.634674,169.572083 247.195755,167.840500 &#xA;&#x9;C247.317230,168.565796 247.293839,169.227890 247.538422,169.768814 &#xA;&#x9;C253.404831,182.742706 246.985611,195.204849 232.978378,197.990509 &#xA;&#x9;C220.175446,200.536697 210.870834,194.312759 209.862793,182.528351 &#xA;&#x9;C208.533096,166.983444 220.465424,151.767502 236.062012,151.049652 &#xA;&#x9;C249.774323,150.418518 263.578339,151.564178 277.330658,152.175812 &#xA;&#x9;C280.606903,152.321518 283.838654,153.466583 286.877777,154.107071 &#xA;&#x9;C282.191406,161.114365 277.032593,167.031540 273.903351,173.876526 &#xA;&#x9;C267.135376,188.680847 261.242920,203.896240 255.302948,219.065094 &#xA;&#x9;C249.929596,232.786957 244.197235,246.211227 233.197601,256.588928 &#xA;&#x9;C223.745987,265.506073 212.523727,267.709106 203.646591,262.339111 &#xA;&#x9;C193.175430,256.004852 189.343567,245.799515 192.607407,232.938705 &#xA;&#x9;C195.811768,220.312256 206.321747,210.267014 217.317291,210.065552 &#xA;&#x9;C229.768478,209.837448 238.420639,218.146240 233.712830,231.072464 &#xA;&#x9;C233.363159,232.032562 233.440735,233.148270 233.319687,234.191635 &#xA;&#x9;C233.721771,234.370911 234.123856,234.550201 234.525940,234.729477 &#xA;&#x9;C235.504501,233.233170 236.888977,231.862152 237.395828,230.220230 &#xA;&#x9;C240.723801,219.439316 232.943192,208.159027 221.601212,207.101196 &#xA;&#x9;C207.457718,205.782104 196.198746,212.962646 190.698395,227.302658 &#xA;&#x9;C186.298233,238.774338 186.733459,250.094208 194.824768,259.830475 &#xA;&#x9;C202.905685,269.554260 213.962982,270.499695 225.466629,267.874939 &#xA;&#x9;C238.344666,264.936615 247.467880,256.448212 255.155472,246.315018 &#xA;&#x9;C265.199921,233.075272 270.286499,217.624924 274.987762,201.893829 &#xA;&#x9;C279.073151,188.223572 283.948669,174.754166 289.196045,161.481049 &#xA;&#x9;C291.882599,154.685486 294.362366,154.445389 301.500549,155.270279 &#xA;&#x9;C307.085052,155.915619 312.867004,156.168350 318.417755,155.464386 &#xA;&#x9;C325.726501,154.537476 332.833252,152.209625 337.781982,146.184265 &#xA;&#x9;C339.564056,144.014496 340.539581,141.182312 341.883179,138.652435 &#xA;&#x9;C341.413849,138.361252 340.944489,138.070068 340.475128,137.778885 &#xA;&#x9;C339.480743,138.547623 338.584808,139.526276 337.474152,140.047012 &#xA;&#x9;C333.643066,141.843170 329.774506,144.802429 325.852142,144.913437 &#xA;&#x9;C316.420959,145.180405 306.941833,144.209167 297.499176,143.507523 &#xA;&#x9;C283.430603,142.462173 269.393982,140.686157 255.311066,140.229370 &#xA;&#x9;C244.178757,139.868301 233.590179,143.298218 223.861725,148.793961 &#xA;&#x9;C214.126205,154.293716 207.089417,162.066849 205.642960,173.593521 &#xA;&#x9;C204.450699,183.094635 205.786011,192.031357 214.429749,198.038635 &#xA;&#x9;C226.596786,206.494553 244.220078,201.704559 252.041443,187.348419 &#xA;M193.340927,199.731552 &#xA;&#x9;C192.666962,187.840439 192.285797,175.923523 191.240326,164.065170 &#xA;&#x9;C190.093353,151.055573 191.477631,139.393570 204.345596,132.291763 &#xA;&#x9;C204.475922,132.219833 204.361801,131.704987 204.361801,131.400406 &#xA;&#x9;C197.411911,130.596298 190.124466,133.891129 185.258804,139.850204 &#xA;&#x9;C177.155380,149.774628 176.367950,161.356308 177.566208,173.381302 &#xA;&#x9;C178.717377,184.933762 180.451218,196.454330 180.983414,208.032379 &#xA;&#x9;C181.295959,214.831924 179.764008,221.716232 179.077621,228.407227 &#xA;&#x9;C184.657242,225.011276 190.131577,214.268692 193.340927,199.731552 &#xA;M249.951508,313.914337 &#xA;&#x9;C239.634094,311.511536 228.882690,310.240570 219.084518,306.483582 &#xA;&#x9;C194.404816,297.020386 175.217911,280.519196 161.628677,257.693909 &#xA;&#x9;C160.781342,256.270660 159.605759,255.042831 158.582901,253.724075 &#xA;&#x9;C158.092102,253.955490 157.601318,254.186905 157.110519,254.418320 &#xA;&#x9;C157.429169,255.813904 157.384720,257.451447 158.126694,258.564941 &#xA;&#x9;C162.267960,264.779877 165.905609,271.523895 170.979752,276.891968 &#xA;&#x9;C201.663788,309.353394 238.472351,324.700531 283.387543,314.756805 &#xA;&#x9;C308.612000,309.172424 329.311768,295.871765 345.144104,275.311249 &#xA;&#x9;C345.822968,274.429596 345.619019,272.868164 345.826324,271.623383 &#xA;&#x9;C344.768433,272.193878 343.418060,272.516754 342.695007,273.370758 &#xA;&#x9;C318.648102,301.772156 288.111938,315.447845 249.951508,313.914337 &#xA;M203.321869,363.369537 &#xA;&#x9;C199.379486,363.369537 195.437103,363.369537 192.005035,363.369537 &#xA;&#x9;C192.005035,378.458099 192.005035,392.972168 192.005035,407.714050 &#xA;&#x9;C194.629150,407.714050 196.518387,407.714050 198.988052,407.714050 &#xA;&#x9;C198.988052,401.354492 198.988052,395.279297 198.988052,389.204102 &#xA;&#x9;C199.452209,388.808716 199.916351,388.413330 200.380508,388.017944 &#xA;&#x9;C202.132446,389.209839 204.332062,390.062408 205.545074,391.662781 &#xA;&#x9;C208.245438,395.225464 210.439575,399.170380 212.863388,402.944489 &#xA;&#x9;C216.396072,408.445312 217.470657,408.850983 223.691422,407.432098 &#xA;&#x9;C219.663040,401.304565 215.536133,395.027130 211.222031,388.464996 &#xA;&#x9;C213.327942,387.270691 214.790161,386.533752 216.156891,385.649231 &#xA;&#x9;C220.393921,382.907013 222.559708,377.893311 221.648651,373.180969 &#xA;&#x9;C220.630463,367.914551 217.110947,365.217102 212.161789,364.220032 &#xA;&#x9;C209.574844,363.698822 206.895004,363.638580 203.321869,363.369537 &#xA;M426.268738,403.895752 &#xA;&#x9;C436.833984,394.432404 439.249512,384.486084 432.031189,372.912170 &#xA;&#x9;C426.951202,364.766937 411.850983,360.507507 401.955139,364.127502 &#xA;&#x9;C401.955139,378.706268 401.955139,393.062469 401.955139,407.645813 &#xA;&#x9;C410.611084,408.378021 418.482697,408.891296 426.268738,403.895752 &#xA;M174.682983,394.779083 &#xA;&#x9;C173.417847,392.677765 172.152695,390.576447 170.726685,388.207947 &#xA;&#x9;C172.099976,387.445343 173.088959,386.902802 174.071823,386.349335 &#xA;&#x9;C179.942978,383.043182 182.230713,378.184875 180.736938,372.202301 &#xA;&#x9;C179.534393,367.386078 175.170639,364.201996 168.936050,364.016022 &#xA;&#x9;C162.839615,363.834198 156.733521,363.976440 151.263977,363.976440 &#xA;&#x9;C151.263977,378.517151 151.263977,393.068878 151.263977,407.647095 &#xA;&#x9;C154.062027,407.647095 156.124573,407.647095 158.635956,407.647095 &#xA;&#x9;C158.635956,402.650665 158.490479,398.006409 158.717026,393.380341 &#xA;&#x9;C158.793488,391.818726 159.812927,390.303284 160.401413,388.766754 &#xA;&#x9;C161.980484,389.679047 164.062912,390.225555 165.042465,391.573517 &#xA;&#x9;C167.774094,395.332489 169.996262,399.457306 172.516815,403.375122 &#xA;&#x9;C175.630692,408.215179 178.260757,409.040253 182.993118,407.215027 &#xA;&#x9;C180.388092,403.346283 177.715500,399.377197 174.682983,394.779083 &#xA;M175.547989,188.314926 &#xA;&#x9;C175.412827,187.245148 175.277664,186.175369 174.990189,183.899902 &#xA;&#x9;C173.117371,186.352432 172.207947,187.710648 171.133698,188.922791 &#xA;&#x9;C164.446945,196.467941 158.513596,204.940567 150.821198,211.272018 &#xA;&#x9;C140.069962,220.121170 141.360840,232.100174 139.517746,243.561554 &#xA;&#x9;C158.265762,229.751877 168.897614,210.779266 175.547989,188.314926 &#xA;M367.829651,259.805481 &#xA;&#x9;C371.128479,260.913910 374.900085,262.797333 377.449554,259.282867 &#xA;&#x9;C381.598969,253.562790 383.619904,247.009857 382.835602,240.075684 &#xA;&#x9;C363.353363,243.240524 342.905365,241.118988 326.670013,254.922150 &#xA;&#x9;C340.689484,252.232407 354.201874,253.141998 367.829651,259.805481 &#xA;M316.657013,394.019958 &#xA;&#x9;C314.973206,398.495026 313.289398,402.970062 311.607788,407.439362 &#xA;&#x9;C317.830994,408.646576 318.884888,408.350677 320.440887,402.296814 &#xA;&#x9;C321.570190,397.903137 323.653992,396.118225 328.055267,396.846832 &#xA;&#x9;C329.026855,397.007660 330.071747,397.011841 331.041962,396.847168 &#xA;&#x9;C336.092468,395.990051 339.160339,397.680908 340.277740,403.010590 &#xA;&#x9;C341.318024,407.972595 344.812225,408.997223 349.138397,407.617706 &#xA;&#x9;C344.473785,394.266754 339.929077,380.936920 335.065491,367.724426 &#xA;&#x9;C334.419220,365.968781 331.983704,363.512604 330.677979,363.683441 &#xA;&#x9;C328.807892,363.928040 326.354401,365.964996 325.651581,367.808990 &#xA;&#x9;C322.457184,376.190063 319.789215,384.771759 316.657013,394.019958 &#xA;M126.793831,403.008942 &#xA;&#x9;C125.536690,402.078949 123.297470,401.245636 123.194695,400.201965 &#xA;&#x9;C122.779388,395.984406 123.022415,391.702026 123.022415,387.003448 &#xA;&#x9;C127.524902,387.003448 131.337204,387.189789 135.112213,386.896332 &#xA;&#x9;C136.335007,386.801270 137.460052,385.448669 138.629791,384.671295 &#xA;&#x9;C137.455078,383.838135 136.330017,382.385529 135.096451,382.286591 &#xA;&#x9;C131.211517,381.975128 127.285812,382.171814 123.398430,382.171814 &#xA;&#x9;C123.398430,377.247284 123.398430,373.185852 123.398430,368.231110 &#xA;&#x9;C129.726288,368.838654 135.559586,369.398712 141.299988,369.949829 &#xA;&#x9;C140.804428,368.399353 144.022736,363.929871 138.882401,363.529694 &#xA;&#x9;C131.143524,362.927216 123.323067,363.372711 116.052902,363.372711 &#xA;&#x9;C116.052902,378.414581 116.052902,392.944092 116.052902,408.029877 &#xA;&#x9;C123.573677,408.029877 130.351776,408.060669 137.129456,408.020142 &#xA;&#x9;C142.609772,407.987396 143.668472,406.313293 141.883179,400.465240 &#xA;&#x9;C137.757812,404.741058 132.498123,402.417358 126.793831,403.008942 &#xA;M146.199982,210.707245 &#xA;&#x9;C154.919617,200.535446 163.704407,190.417938 172.282242,180.127930 &#xA;&#x9;C173.447098,178.730560 173.575775,176.469421 174.184219,174.608215 &#xA;&#x9;C167.417328,177.692413 162.117401,182.155914 156.037766,184.877853 &#xA;&#x9;C145.425186,189.629257 139.598251,197.895065 135.892593,208.278564 &#xA;&#x9;C134.670456,211.703079 133.465424,215.133698 132.252563,218.561508 &#xA;&#x9;C132.796707,218.964142 133.340851,219.366776 133.884995,219.769409 &#xA;&#x9;C137.794312,216.880920 141.703629,213.992432 146.199982,210.707245 &#xA;M174.859467,201.484177 &#xA;&#x9;C171.182770,212.682144 165.821930,223.009354 157.957367,231.801437 &#xA;&#x9;C151.583282,238.927231 147.945618,247.203735 145.359131,257.433411 &#xA;&#x9;C148.304352,255.891510 150.570557,255.025681 152.473770,253.655640 &#xA;&#x9;C163.223663,245.917130 170.760788,235.560623 174.702820,223.081070 &#xA;&#x9;C176.761826,216.562714 176.908936,209.403290 177.572586,202.500046 &#xA;&#x9;C177.829346,199.829163 177.392380,199.787155 174.859467,201.484177 &#xA;M236.361420,370.065460 &#xA;&#x9;C232.766769,362.486145 232.246841,362.204651 225.706345,364.180237 &#xA;&#x9;C232.878128,377.824585 242.822601,390.550354 238.937485,407.586609 &#xA;&#x9;C240.936279,407.805939 241.908020,408.007843 242.876617,407.993805 &#xA;&#x9;C243.987137,407.977722 245.094894,407.770020 247.240753,407.529266 &#xA;&#x9;C242.681412,390.584625 254.197052,378.370178 259.888214,364.270721 &#xA;&#x9;C255.582199,362.524445 253.307068,363.463654 251.707855,367.480591 &#xA;&#x9;C249.459717,373.127441 246.600906,378.531158 243.579910,384.936462 &#xA;&#x9;C240.992630,379.590942 238.849167,375.162354 236.361420,370.065460 &#xA;M89.109222,375.580109 &#xA;&#x9;C89.109222,386.296936 89.109222,397.013794 89.109222,407.766418 &#xA;&#x9;C91.738304,407.766418 93.509590,407.766418 95.672928,407.766418 &#xA;&#x9;C95.760376,405.915222 95.898849,404.300964 95.902603,402.686371 &#xA;&#x9;C95.923851,393.546112 95.911201,384.405792 95.913330,375.265472 &#xA;&#x9;C95.914879,368.592407 99.420937,366.568787 105.545837,369.700806 &#xA;&#x9;C106.176643,370.023346 106.811569,370.337799 108.240967,371.056274 &#xA;&#x9;C107.130753,367.840332 110.046326,363.654449 104.898514,363.456512 &#xA;&#x9;C96.467255,363.132294 88.014435,363.368774 79.321892,363.368774 &#xA;&#x9;C79.321892,365.410919 79.321892,366.940582 79.321892,368.522552 &#xA;&#x9;C82.696732,368.718750 85.743591,368.895874 89.109352,369.091553 &#xA;&#x9;C89.109352,371.324707 89.109352,372.965668 89.109222,375.580109 &#xA;M284.981750,387.500122 &#xA;&#x9;C284.981750,394.248505 284.981750,400.996887 284.981750,408.029999 &#xA;&#x9;C291.510773,408.029999 297.162354,408.042908 302.813873,408.026459 &#xA;&#x9;C308.805206,408.009003 309.997437,406.364990 308.475403,400.281525 &#xA;&#x9;C303.577911,405.209412 297.759674,402.317444 291.858002,402.890747 &#xA;&#x9;C291.858002,391.554718 291.858307,380.914795 291.857910,370.274902 &#xA;&#x9;C291.857635,362.826233 291.641663,362.653564 284.981720,363.635010 &#xA;&#x9;C284.981720,371.376740 284.981720,378.938599 284.981750,387.500122 &#xA;z"/>
  <path fill="#DCBC76" stroke="none" d="&#xA;M251.886322,187.696991 &#xA;&#x9;C244.220078,201.704559 226.596786,206.494553 214.429749,198.038635 &#xA;&#x9;C205.786011,192.031357 204.450699,183.094635 205.642960,173.593521 &#xA;&#x9;C207.089417,162.066849 214.126205,154.293716 223.861725,148.793961 &#xA;&#x9;C233.590179,143.298218 244.178757,139.868301 255.311066,140.229370 &#xA;&#x9;C269.393982,140.686157 283.430603,142.462173 297.499176,143.507523 &#xA;&#x9;C306.941833,144.209167 316.420959,145.180405 325.852142,144.913437 &#xA;&#x9;C329.774506,144.802429 333.643066,141.843170 337.474152,140.047012 &#xA;&#x9;C338.584808,139.526276 339.480743,138.547623 340.475128,137.778885 &#xA;&#x9;C340.944489,138.070068 341.413849,138.361252 341.883179,138.652435 &#xA;&#x9;C340.539581,141.182312 339.564056,144.014496 337.781982,146.184265 &#xA;&#x9;C332.833252,152.209625 325.726501,154.537476 318.417755,155.464386 &#xA;&#x9;C312.867004,156.168350 307.085052,155.915619 301.500549,155.270279 &#xA;&#x9;C294.362366,154.445389 291.882599,154.685486 289.196045,161.481049 &#xA;&#x9;C283.948669,174.754166 279.073151,188.223572 274.987762,201.893829 &#xA;&#x9;C270.286499,217.624924 265.199921,233.075272 255.155472,246.315018 &#xA;&#x9;C247.467880,256.448212 238.344666,264.936615 225.466629,267.874939 &#xA;&#x9;C213.962982,270.499695 202.905685,269.554260 194.824768,259.830475 &#xA;&#x9;C186.733459,250.094208 186.298233,238.774338 190.698395,227.302658 &#xA;&#x9;C196.198746,212.962646 207.457718,205.782104 221.601212,207.101196 &#xA;&#x9;C232.943192,208.159027 240.723801,219.439316 237.395828,230.220230 &#xA;&#x9;C236.888977,231.862152 235.504501,233.233170 234.525940,234.729477 &#xA;&#x9;C234.123856,234.550201 233.721771,234.370911 233.319687,234.191635 &#xA;&#x9;C233.440735,233.148270 233.363159,232.032562 233.712830,231.072464 &#xA;&#x9;C238.420639,218.146240 229.768478,209.837448 217.317291,210.065552 &#xA;&#x9;C206.321747,210.267014 195.811768,220.312256 192.607407,232.938705 &#xA;&#x9;C189.343567,245.799515 193.175430,256.004852 203.646591,262.339111 &#xA;&#x9;C212.523727,267.709106 223.745987,265.506073 233.197601,256.588928 &#xA;&#x9;C244.197235,246.211227 249.929596,232.786957 255.302948,219.065094 &#xA;&#x9;C261.242920,203.896240 267.135376,188.680847 273.903351,173.876526 &#xA;&#x9;C277.032593,167.031540 282.191406,161.114365 286.877777,154.107071 &#xA;&#x9;C283.838654,153.466583 280.606903,152.321518 277.330658,152.175812 &#xA;&#x9;C263.578339,151.564178 249.774323,150.418518 236.062012,151.049652 &#xA;&#x9;C220.465424,151.767502 208.533096,166.983444 209.862793,182.528351 &#xA;&#x9;C210.870834,194.312759 220.175446,200.536697 232.978378,197.990509 &#xA;&#x9;C246.985611,195.204849 253.404831,182.742706 247.538422,169.768814 &#xA;&#x9;C247.293839,169.227890 247.317230,168.565796 247.195755,167.840500 &#xA;&#x9;C253.634674,169.572083 255.361633,176.921570 251.886322,187.696991 &#xA;z"/>
  <path fill="#DCBC77" stroke="none" d="&#xA;M378.014130,205.980225 &#xA;&#x9;C377.450256,204.599075 376.362335,203.203766 376.399231,201.838852 &#xA;&#x9;C377.309357,168.140015 364.126648,140.016281 340.921631,116.722328 &#xA;&#x9;C315.231384,90.933617 283.980713,77.734390 247.034470,81.001663 &#xA;&#x9;C222.214218,83.196587 200.576508,93.364204 181.746628,109.495575 &#xA;&#x9;C162.662231,125.844963 149.656891,146.160858 142.443878,170.273026 &#xA;&#x9;C141.482803,173.485748 138.992584,176.241028 137.210495,179.208145 &#xA;&#x9;C136.511124,178.883133 135.811768,178.558121 135.112411,178.233093 &#xA;&#x9;C137.891907,169.687531 140.021439,160.861786 143.563416,152.644897 &#xA;&#x9;C158.918259,117.023712 185.292770,92.929268 221.976196,80.638397 &#xA;&#x9;C230.649017,77.732544 240.155426,76.910088 249.363983,76.087479 &#xA;&#x9;C272.321442,74.036674 294.117493,78.504677 314.451141,89.465607 &#xA;&#x9;C351.328247,109.344337 373.023254,140.248260 380.509003,181.261444 &#xA;&#x9;C381.429565,186.304932 381.683777,191.539261 381.578522,196.671448 &#xA;&#x9;C381.526184,199.222443 379.957672,201.742340 379.035614,204.633942 &#xA;&#x9;C378.996185,204.991577 379.023895,204.981293 378.725525,204.995819 &#xA;&#x9;C378.279236,205.347931 378.131348,205.685516 377.987640,206.009796 &#xA;&#x9;C377.991821,205.996490 378.014130,205.980225 378.014130,205.980225 &#xA;z"/>
  <path fill="#DCBD79" stroke="none" d="&#xA;M354.701202,275.944458 &#xA;&#x9;C354.444427,277.368591 354.649872,279.151642 353.863373,280.164398 &#xA;&#x9;C333.434845,306.471039 307.018219,322.898285 273.727051,326.800995 &#xA;&#x9;C230.656601,331.850128 194.355637,317.905670 165.538391,285.532288 &#xA;&#x9;C158.653000,277.797180 153.362823,268.642090 146.901382,259.522522 &#xA;&#x9;C149.507904,258.405762 150.911804,257.804260 151.111237,257.718811 &#xA;&#x9;C159.798691,268.525146 167.162933,279.538910 176.348404,288.733154 &#xA;&#x9;C196.709839,309.114014 221.685242,320.392639 250.609665,322.295380 &#xA;&#x9;C285.519745,324.591888 315.270416,313.033295 340.025574,288.483490 &#xA;&#x9;C343.316711,285.219604 345.926147,281.274811 349.147034,277.930145 &#xA;&#x9;C350.284332,276.749146 352.305420,276.419250 354.299622,275.819763 &#xA;&#x9;C354.676208,275.938721 354.701202,275.944458 354.701202,275.944458 &#xA;z"/>
  <path fill="#DBBB74" stroke="none" d="&#xA;M314.979462,250.036453 &#xA;&#x9;C315.864471,248.370972 316.497681,246.497742 317.673676,245.072311 &#xA;&#x9;C328.705048,231.701080 343.643555,224.484116 359.293915,218.050247 &#xA;&#x9;C366.008911,215.289749 371.905823,210.539413 378.094299,206.336670 &#xA;&#x9;C378.014130,205.980225 377.991821,205.996490 378.298706,206.020279 &#xA;&#x9;C378.745026,205.689819 378.884460,205.335556 379.023895,204.981293 &#xA;&#x9;C379.023895,204.981293 378.996185,204.991577 378.987061,205.002960 &#xA;&#x9;C379.966492,205.771530 381.797302,206.525894 381.799835,207.286407 &#xA;&#x9;C381.811829,210.848099 381.320435,214.411484 380.965057,218.474915 &#xA;&#x9;C381.282990,218.528564 382.389130,218.715240 383.750366,218.944977 &#xA;&#x9;C383.750366,222.058609 383.754456,225.207840 383.749512,228.357086 &#xA;&#x9;C383.738647,235.244507 381.113861,238.142883 374.027405,238.888809 &#xA;&#x9;C367.586823,239.566727 361.105042,239.913467 354.691895,240.779999 &#xA;&#x9;C339.719849,242.802917 327.004974,249.464600 315.675476,259.416840 &#xA;&#x9;C309.365265,264.959961 302.224976,269.566315 295.372040,274.473694 &#xA;&#x9;C294.437683,275.142761 292.998260,275.106506 291.309021,275.513306 &#xA;&#x9;C297.765106,269.428680 303.939331,263.950653 309.663605,258.037109 &#xA;&#x9;C311.777283,255.853561 312.831482,252.644455 314.663239,250.304001 &#xA;&#x9;C316.007050,250.629532 317.286926,250.916901 318.068787,250.420227 &#xA;&#x9;C323.394501,247.037033 328.468079,243.237885 333.901489,240.047211 &#xA;&#x9;C344.549347,233.794495 356.534821,231.552399 368.411102,228.938293 &#xA;&#x9;C371.833862,228.184906 374.973083,226.143082 378.242279,224.691971 &#xA;&#x9;C378.049652,224.311035 377.857025,223.930115 377.664398,223.549179 &#xA;&#x9;C355.402313,229.149948 332.371857,232.936279 314.979462,250.036453 &#xA;z"/>
  <path fill="#DEC181" stroke="none" d="&#xA;M151.025925,165.997162 &#xA;&#x9;C150.895172,164.639435 150.289398,163.112732 150.703461,161.948822 &#xA;&#x9;C159.961349,135.924805 177.273666,116.262169 200.511780,102.168137 &#xA;&#x9;C253.204269,70.209862 320.255768,86.459694 352.938812,138.884796 &#xA;&#x9;C365.306396,158.722992 372.475220,180.374100 371.827820,204.104645 &#xA;&#x9;C371.768951,206.262939 370.783447,208.395981 370.228271,210.540741 &#xA;&#x9;C369.583221,210.451645 368.938202,210.362564 368.293152,210.273468 &#xA;&#x9;C368.293152,208.569809 368.286469,206.866135 368.294159,205.162506 &#xA;&#x9;C368.449768,170.743057 356.358978,141.276138 331.327332,117.735397 &#xA;&#x9;C313.026215,100.524292 290.686768,91.024033 265.573273,89.887405 &#xA;&#x9;C223.899124,88.001236 191.310226,105.976639 166.459854,138.482788 &#xA;&#x9;C160.906921,145.746429 157.748138,154.840347 153.547119,163.519699 &#xA;&#x9;C153.607132,163.947784 153.540634,163.991013 153.174530,163.961151 &#xA;&#x9;C152.533630,164.298676 152.258804,164.666061 151.985947,165.009918 &#xA;&#x9;C151.987900,164.986420 152.034882,164.990768 151.739304,165.008865 &#xA;&#x9;C151.294907,165.362442 151.146088,165.697906 150.994385,166.015930 &#xA;&#x9;C150.991516,165.998474 151.025925,165.997162 151.025925,165.997162 &#xA;z"/>
  <path fill="#DBBA72" stroke="none" d="&#xA;M193.224121,200.151047 &#xA;&#x9;C190.131577,214.268692 184.657242,225.011276 179.077621,228.407227 &#xA;&#x9;C179.764008,221.716232 181.295959,214.831924 180.983414,208.032379 &#xA;&#x9;C180.451218,196.454330 178.717377,184.933762 177.566208,173.381302 &#xA;&#x9;C176.367950,161.356308 177.155380,149.774628 185.258804,139.850204 &#xA;&#x9;C190.124466,133.891129 197.411911,130.596298 204.361801,131.400406 &#xA;&#x9;C204.361801,131.704987 204.475922,132.219833 204.345596,132.291763 &#xA;&#x9;C191.477631,139.393570 190.093353,151.055573 191.240326,164.065170 &#xA;&#x9;C192.285797,175.923523 192.666962,187.840439 193.224121,200.151047 &#xA;z"/>
  <path fill="#DEC181" stroke="none" d="&#xA;M250.412338,313.963867 &#xA;&#x9;C288.111938,315.447845 318.648102,301.772156 342.695007,273.370758 &#xA;&#x9;C343.418060,272.516754 344.768433,272.193878 345.826324,271.623383 &#xA;&#x9;C345.619019,272.868164 345.822968,274.429596 345.144104,275.311249 &#xA;&#x9;C329.311768,295.871765 308.612000,309.172424 283.387543,314.756805 &#xA;&#x9;C238.472351,324.700531 201.663788,309.353394 170.979752,276.891968 &#xA;&#x9;C165.905609,271.523895 162.267960,264.779877 158.126694,258.564941 &#xA;&#x9;C157.384720,257.451447 157.429169,255.813904 157.110519,254.418320 &#xA;&#x9;C157.601318,254.186905 158.092102,253.955490 158.582901,253.724075 &#xA;&#x9;C159.605759,255.042831 160.781342,256.270660 161.628677,257.693909 &#xA;&#x9;C175.217911,280.519196 194.404816,297.020386 219.084518,306.483582 &#xA;&#x9;C228.882690,310.240570 239.634094,311.511536 250.412338,313.963867 &#xA;z"/>
  <path fill="#DCBE79" stroke="none" d="&#xA;M363.665314,378.318756 &#xA;&#x9;C363.665314,387.947205 363.665314,397.575653 363.665314,407.710815 &#xA;&#x9;C361.488678,407.831055 359.764709,407.926300 357.141785,408.071228 &#xA;&#x9;C357.141785,393.194336 357.141785,378.683655 357.141785,363.680450 &#xA;&#x9;C360.456146,362.513092 363.304535,363.343811 365.754700,367.393036 &#xA;&#x9;C371.159454,376.325073 377.034119,384.972717 383.992401,393.590942 &#xA;&#x9;C383.992401,392.114716 383.992493,390.638519 383.992371,389.162292 &#xA;&#x9;C383.991791,381.838531 383.857910,374.510071 384.115295,367.195404 &#xA;&#x9;C384.160767,365.902252 385.838745,364.666534 386.762878,363.404327 &#xA;&#x9;C387.800262,364.540161 389.722015,365.662140 389.740082,366.813904 &#xA;&#x9;C389.950775,380.271790 389.875061,393.734161 389.875061,407.254883 &#xA;&#x9;C386.311523,408.826599 384.281525,407.934448 382.328156,404.803650 &#xA;&#x9;C376.696899,395.777802 370.712006,386.972565 364.438416,377.707062 &#xA;&#x9;C363.895660,377.661865 363.780487,377.990326 363.665314,378.318756 &#xA;z"/>
  <path fill="#DCBC77" stroke="none" d="&#xA;M203.789490,363.369873 &#xA;&#x9;C206.895004,363.638580 209.574844,363.698822 212.161789,364.220032 &#xA;&#x9;C217.110947,365.217102 220.630463,367.914551 221.648651,373.180969 &#xA;&#x9;C222.559708,377.893311 220.393921,382.907013 216.156891,385.649231 &#xA;&#x9;C214.790161,386.533752 213.327942,387.270691 211.222031,388.464996 &#xA;&#x9;C215.536133,395.027130 219.663040,401.304565 223.691422,407.432098 &#xA;&#x9;C217.470657,408.850983 216.396072,408.445312 212.863388,402.944489 &#xA;&#x9;C210.439575,399.170380 208.245438,395.225464 205.545074,391.662781 &#xA;&#x9;C204.332062,390.062408 202.132446,389.209839 200.380508,388.017944 &#xA;&#x9;C199.916351,388.413330 199.452209,388.808716 198.988052,389.204102 &#xA;&#x9;C198.988052,395.279297 198.988052,401.354492 198.988052,407.714050 &#xA;&#x9;C196.518387,407.714050 194.629150,407.714050 192.005035,407.714050 &#xA;&#x9;C192.005035,392.972168 192.005035,378.458099 192.005035,363.369537 &#xA;&#x9;C195.437103,363.369537 199.379486,363.369537 203.789490,363.369873 &#xA;M206.835495,383.809601 &#xA;&#x9;C213.146927,381.924255 215.938080,378.400940 214.759552,373.806915 &#xA;&#x9;C213.520508,368.977020 207.525375,367.031036 199.231873,368.869324 &#xA;&#x9;C199.231873,373.693420 199.231873,378.553894 199.231873,383.885590 &#xA;&#x9;C201.734985,383.885590 203.859955,383.885590 206.835495,383.809601 &#xA;z"/>
  <path fill="#DCBD79" stroke="none" d="&#xA;M425.972168,404.112457 &#xA;&#x9;C418.482697,408.891296 410.611084,408.378021 401.955139,407.645813 &#xA;&#x9;C401.955139,393.062469 401.955139,378.706268 401.955139,364.127502 &#xA;&#x9;C411.850983,360.507507 426.951202,364.766937 432.031189,372.912170 &#xA;&#x9;C439.249512,384.486084 436.833984,394.432404 425.972168,404.112457 &#xA;M408.894714,374.607544 &#xA;&#x9;C408.894714,383.985443 408.894714,393.363312 408.894714,402.745819 &#xA;&#x9;C416.118225,403.454742 422.064850,402.698029 425.306000,396.493713 &#xA;&#x9;C429.259308,388.926086 429.168671,380.933197 424.670593,373.690308 &#xA;&#x9;C421.236420,368.160492 415.350311,368.216797 409.214233,369.134583 &#xA;&#x9;C409.100403,370.734863 408.997192,372.185455 408.894714,374.607544 &#xA;z"/>
  <path fill="#DBBB74" stroke="none" d="&#xA;M174.862946,395.093597 &#xA;&#x9;C177.715500,399.377197 180.388092,403.346283 182.993118,407.215027 &#xA;&#x9;C178.260757,409.040253 175.630692,408.215179 172.516815,403.375122 &#xA;&#x9;C169.996262,399.457306 167.774094,395.332489 165.042465,391.573517 &#xA;&#x9;C164.062912,390.225555 161.980484,389.679047 160.401413,388.766754 &#xA;&#x9;C159.812927,390.303284 158.793488,391.818726 158.717026,393.380341 &#xA;&#x9;C158.490479,398.006409 158.635956,402.650665 158.635956,407.647095 &#xA;&#x9;C156.124573,407.647095 154.062027,407.647095 151.263977,407.647095 &#xA;&#x9;C151.263977,393.068878 151.263977,378.517151 151.263977,363.976440 &#xA;&#x9;C156.733521,363.976440 162.839615,363.834198 168.936050,364.016022 &#xA;&#x9;C175.170639,364.201996 179.534393,367.386078 180.736938,372.202301 &#xA;&#x9;C182.230713,378.184875 179.942978,383.043182 174.071823,386.349335 &#xA;&#x9;C173.088959,386.902802 172.099976,387.445343 170.726685,388.207947 &#xA;&#x9;C172.152695,390.576447 173.417847,392.677765 174.862946,395.093597 &#xA;M158.921707,383.598907 &#xA;&#x9;C162.366806,383.412292 165.906555,383.656189 169.231888,382.924927 &#xA;&#x9;C172.985199,382.099518 174.291809,379.068298 174.136261,375.274963 &#xA;&#x9;C173.992035,371.757812 172.251083,369.473145 168.959015,368.896271 &#xA;&#x9;C165.492081,368.288788 161.914001,368.315674 158.298340,368.059235 &#xA;&#x9;C158.298340,373.680939 158.298340,378.318024 158.921707,383.598907 &#xA;z"/>
  <path fill="#DBBA72" stroke="none" d="&#xA;M175.439148,188.685822 &#xA;&#x9;C168.897614,210.779266 158.265762,229.751877 139.517746,243.561554 &#xA;&#x9;C141.360840,232.100174 140.069962,220.121170 150.821198,211.272018 &#xA;&#x9;C158.513596,204.940567 164.446945,196.467941 171.133698,188.922791 &#xA;&#x9;C172.207947,187.710648 173.117371,186.352432 174.990189,183.899902 &#xA;&#x9;C175.277664,186.175369 175.412827,187.245148 175.439148,188.685822 &#xA;z"/>
  <path fill="#DBBA72" stroke="none" d="&#xA;M153.540634,163.991013 &#xA;&#x9;C153.540634,163.991013 153.607132,163.947784 153.602737,163.967560 &#xA;&#x9;C160.955658,155.180939 169.291183,147.483109 179.667374,141.654175 &#xA;&#x9;C178.749680,144.003265 177.741470,146.321869 176.937210,148.709167 &#xA;&#x9;C175.933517,151.688477 174.208679,154.770538 174.362152,157.726883 &#xA;&#x9;C174.765106,165.488602 170.521301,170.446411 164.880356,174.127914 &#xA;&#x9;C157.289810,179.081833 149.169052,183.230896 141.209229,187.604156 &#xA;&#x9;C139.864197,188.343140 138.183655,188.471481 136.658127,188.881958 &#xA;&#x9;C136.383728,188.529739 136.109344,188.177505 135.834946,187.825287 &#xA;&#x9;C140.938446,180.785614 146.041962,173.745956 151.085693,166.351730 &#xA;&#x9;C151.025925,165.997162 150.991516,165.998474 151.286377,165.997437 &#xA;&#x9;C151.732452,165.661179 151.883667,165.325974 152.034882,164.990768 &#xA;&#x9;C152.034882,164.990768 151.987900,164.986420 152.314758,164.968262 &#xA;&#x9;C152.941299,164.630402 153.240967,164.310699 153.540634,163.991013 &#xA;z"/>
  <path fill="#DBBA72" stroke="none" d="&#xA;M367.463013,259.637512 &#xA;&#x9;C354.201874,253.141998 340.689484,252.232407 326.670013,254.922150 &#xA;&#x9;C342.905365,241.118988 363.353363,243.240524 382.835602,240.075684 &#xA;&#x9;C383.619904,247.009857 381.598969,253.562790 377.449554,259.282867 &#xA;&#x9;C374.900085,262.797333 371.128479,260.913910 367.463013,259.637512 &#xA;z"/>
  <path fill="#DCBC77" stroke="none" d="&#xA;M316.794434,393.650635 &#xA;&#x9;C319.789215,384.771759 322.457184,376.190063 325.651581,367.808990 &#xA;&#x9;C326.354401,365.964996 328.807892,363.928040 330.677979,363.683441 &#xA;&#x9;C331.983704,363.512604 334.419220,365.968781 335.065491,367.724426 &#xA;&#x9;C339.929077,380.936920 344.473785,394.266754 349.138397,407.617706 &#xA;&#x9;C344.812225,408.997223 341.318024,407.972595 340.277740,403.010590 &#xA;&#x9;C339.160339,397.680908 336.092468,395.990051 331.041962,396.847168 &#xA;&#x9;C330.071747,397.011841 329.026855,397.007660 328.055267,396.846832 &#xA;&#x9;C323.653992,396.118225 321.570190,397.903137 320.440887,402.296814 &#xA;&#x9;C318.884888,408.350677 317.830994,408.646576 311.607788,407.439362 &#xA;&#x9;C313.289398,402.970062 314.973206,398.495026 316.794434,393.650635 &#xA;M335.744080,391.519775 &#xA;&#x9;C334.153748,385.438904 332.563446,379.358002 330.973114,373.277130 &#xA;&#x9;C330.508362,373.324371 330.043579,373.371643 329.578796,373.418884 &#xA;&#x9;C327.722839,379.433075 325.866913,385.447296 323.857391,391.959137 &#xA;&#x9;C328.076538,391.959137 331.530487,391.959137 335.744080,391.519775 &#xA;z"/>
  <path fill="#DCBE79" stroke="none" d="&#xA;M127.262360,403.010132 &#xA;&#x9;C132.498123,402.417358 137.757812,404.741058 141.883179,400.465240 &#xA;&#x9;C143.668472,406.313293 142.609772,407.987396 137.129456,408.020142 &#xA;&#x9;C130.351776,408.060669 123.573677,408.029877 116.052902,408.029877 &#xA;&#x9;C116.052902,392.944092 116.052902,378.414581 116.052902,363.372711 &#xA;&#x9;C123.323067,363.372711 131.143524,362.927216 138.882401,363.529694 &#xA;&#x9;C144.022736,363.929871 140.804428,368.399353 141.299988,369.949829 &#xA;&#x9;C135.559586,369.398712 129.726288,368.838654 123.398430,368.231110 &#xA;&#x9;C123.398430,373.185852 123.398430,377.247284 123.398430,382.171814 &#xA;&#x9;C127.285812,382.171814 131.211517,381.975128 135.096451,382.286591 &#xA;&#x9;C136.330017,382.385529 137.455078,383.838135 138.629791,384.671265 &#xA;&#x9;C137.460052,385.448669 136.335007,386.801270 135.112213,386.896332 &#xA;&#x9;C131.337204,387.189789 127.524902,387.003448 123.022415,387.003448 &#xA;&#x9;C123.022415,391.702026 122.779388,395.984406 123.194695,400.201965 &#xA;&#x9;C123.297470,401.245636 125.536690,402.078949 127.262360,403.010132 &#xA;z"/>
  <path fill="#DBBA72" stroke="none" d="&#xA;M145.906464,210.905594 &#xA;&#x9;C141.703629,213.992432 137.794312,216.880920 133.884995,219.769409 &#xA;&#x9;C133.340851,219.366776 132.796707,218.964142 132.252563,218.561508 &#xA;&#x9;C133.465424,215.133698 134.670456,211.703079 135.892593,208.278564 &#xA;&#x9;C139.598251,197.895065 145.425186,189.629257 156.037766,184.877853 &#xA;&#x9;C162.117401,182.155914 167.417328,177.692413 174.184219,174.608215 &#xA;&#x9;C173.575775,176.469421 173.447098,178.730560 172.282242,180.127930 &#xA;&#x9;C163.704407,190.417938 154.919617,200.535446 145.906464,210.905594 &#xA;z"/>
  <path fill="#DBBB74" stroke="none" d="&#xA;M355.185913,275.835205 &#xA;&#x9;C354.701202,275.944458 354.676208,275.938721 354.688904,275.956360 &#xA;&#x9;C345.591888,266.522614 334.595184,262.361938 321.489685,264.164062 &#xA;&#x9;C320.031769,264.364471 318.595154,264.720062 316.862305,265.059875 &#xA;&#x9;C326.019775,253.292999 352.810150,253.278336 372.619446,264.722321 &#xA;&#x9;C370.105316,273.185242 364.841431,276.602722 355.185913,275.835205 &#xA;z"/>
  <path fill="#DBBA72" stroke="none" d="&#xA;M174.959702,201.134598 &#xA;&#x9;C177.392380,199.787155 177.829346,199.829163 177.572586,202.500046 &#xA;&#x9;C176.908936,209.403290 176.761826,216.562714 174.702820,223.081070 &#xA;&#x9;C170.760788,235.560623 163.223663,245.917130 152.473770,253.655640 &#xA;&#x9;C150.570557,255.025681 148.304352,255.891510 145.359131,257.433411 &#xA;&#x9;C147.945618,247.203735 151.583282,238.927231 157.957367,231.801437 &#xA;&#x9;C165.821930,223.009354 171.182770,212.682144 174.959702,201.134598 &#xA;z"/>
  <path fill="#DCBC76" stroke="none" d="&#xA;M236.533554,370.399597 &#xA;&#x9;C238.849167,375.162354 240.992630,379.590942 243.579910,384.936462 &#xA;&#x9;C246.600906,378.531158 249.459717,373.127441 251.707855,367.480591 &#xA;&#x9;C253.307068,363.463654 255.582199,362.524445 259.888214,364.270721 &#xA;&#x9;C254.197052,378.370178 242.681412,390.584625 247.240753,407.529266 &#xA;&#x9;C245.094894,407.770020 243.987137,407.977722 242.876617,407.993805 &#xA;&#x9;C241.908020,408.007843 240.936279,407.805939 238.937485,407.586609 &#xA;&#x9;C242.822601,390.550354 232.878128,377.824585 225.706345,364.180237 &#xA;&#x9;C232.246841,362.204651 232.766769,362.486145 236.533554,370.399597 &#xA;z"/>
  <path fill="#DCBE79" stroke="none" d="&#xA;M89.109283,375.093384 &#xA;&#x9;C89.109352,372.965668 89.109352,371.324707 89.109352,369.091553 &#xA;&#x9;C85.743591,368.895874 82.696732,368.718750 79.321892,368.522552 &#xA;&#x9;C79.321892,366.940582 79.321892,365.410919 79.321892,363.368774 &#xA;&#x9;C88.014435,363.368774 96.467255,363.132294 104.898514,363.456512 &#xA;&#x9;C110.046326,363.654449 107.130753,367.840332 108.240967,371.056274 &#xA;&#x9;C106.811569,370.337799 106.176643,370.023346 105.545837,369.700806 &#xA;&#x9;C99.420937,366.568787 95.914879,368.592407 95.913330,375.265472 &#xA;&#x9;C95.911201,384.405792 95.923851,393.546112 95.902603,402.686371 &#xA;&#x9;C95.898849,404.300964 95.760376,405.915222 95.672928,407.766418 &#xA;&#x9;C93.509590,407.766418 91.738304,407.766418 89.109222,407.766418 &#xA;&#x9;C89.109222,397.013794 89.109222,386.296936 89.109283,375.093384 &#xA;z"/>
  <path fill="#DCBE79" stroke="none" d="&#xA;M284.981750,387.000305 &#xA;&#x9;C284.981720,378.938599 284.981720,371.376740 284.981720,363.635010 &#xA;&#x9;C291.641663,362.653564 291.857635,362.826233 291.857910,370.274902 &#xA;&#x9;C291.858307,380.914795 291.858002,391.554718 291.858002,402.890747 &#xA;&#x9;C297.759674,402.317444 303.577911,405.209412 308.475403,400.281372 &#xA;&#x9;C309.997437,406.364990 308.805206,408.009003 302.813873,408.026459 &#xA;&#x9;C297.162354,408.042908 291.510773,408.029999 284.981750,408.029999 &#xA;&#x9;C284.981750,400.996887 284.981750,394.248505 284.981750,387.000305 &#xA;z"/>
  <path fill="#FFFFFE" stroke="none" d="&#xA;M378.725525,204.995819 &#xA;&#x9;C378.884460,205.335556 378.745026,205.689819 378.294525,206.033585 &#xA;&#x9;C378.131348,205.685516 378.279236,205.347931 378.725525,204.995819 &#xA;z"/>
  <path fill="#F8F3E6" stroke="none" d="&#xA;M314.997437,250.027313 &#xA;&#x9;C332.371857,232.936279 355.402313,229.149948 377.664398,223.549179 &#xA;&#x9;C377.857025,223.930115 378.049652,224.311035 378.242279,224.691971 &#xA;&#x9;C374.973083,226.143082 371.833862,228.184906 368.411102,228.938293 &#xA;&#x9;C356.534821,231.552399 344.549347,233.794495 333.901489,240.047211 &#xA;&#x9;C328.468079,243.237885 323.394501,247.037033 318.068787,250.420227 &#xA;&#x9;C317.286926,250.916901 316.007050,250.629532 314.990509,250.341904 &#xA;&#x9;C315.023438,249.978897 315.015411,250.018173 314.997437,250.027313 &#xA;z"/>
  <path fill="#FFFFFE" stroke="none" d="&#xA;M153.174530,163.961151 &#xA;&#x9;C153.240967,164.310699 152.941299,164.630402 152.312805,164.991760 &#xA;&#x9;C152.258804,164.666061 152.533630,164.298676 153.174530,163.961151 &#xA;z"/>
  <path fill="#FFFFFE" stroke="none" d="&#xA;M151.739304,165.008865 &#xA;&#x9;C151.883667,165.325974 151.732452,165.661179 151.289246,166.014893 &#xA;&#x9;C151.146088,165.697906 151.294907,165.362442 151.739304,165.008865 &#xA;z"/>
  <path fill="#FFFFFE" stroke="none" d="&#xA;M363.830383,378.157135 &#xA;&#x9;C363.780487,377.990326 363.895660,377.661865 364.165619,377.500244 &#xA;&#x9;C364.320435,377.667023 363.995483,377.995514 363.830383,378.157135 &#xA;z"/>
  <path fill="#FDFBF6" stroke="none" d="&#xA;M206.410217,383.847595 &#xA;&#x9;C203.859955,383.885590 201.734985,383.885590 199.231873,383.885590 &#xA;&#x9;C199.231873,378.553894 199.231873,373.693420 199.231873,368.869324 &#xA;&#x9;C207.525375,367.031036 213.520508,368.977020 214.759552,373.806915 &#xA;&#x9;C215.938080,378.400940 213.146927,381.924255 206.410217,383.847595 &#xA;z"/>
  <path fill="#FEFDFB" stroke="none" d="&#xA;M408.894348,374.121796 &#xA;&#x9;C408.997192,372.185455 409.100403,370.734863 409.214233,369.134583 &#xA;&#x9;C415.350311,368.216797 421.236420,368.160492 424.670593,373.690308 &#xA;&#x9;C429.168671,380.933197 429.259308,388.926086 425.306000,396.493713 &#xA;&#x9;C422.064850,402.698029 416.118225,403.454742 408.894714,402.745819 &#xA;&#x9;C408.894714,393.363312 408.894714,383.985443 408.894348,374.121796 &#xA;z"/>
  <path fill="#FDFBF6" stroke="none" d="&#xA;M158.610016,383.277008 &#xA;&#x9;C158.298340,378.318024 158.298340,373.680939 158.298340,368.059235 &#xA;&#x9;C161.914001,368.315674 165.492081,368.288788 168.959015,368.896271 &#xA;&#x9;C172.251083,369.473145 173.992035,371.757812 174.136261,375.274963 &#xA;&#x9;C174.291809,379.068298 172.985199,382.099518 169.231888,382.924927 &#xA;&#x9;C165.906555,383.656189 162.366806,383.412292 158.610016,383.277008 &#xA;z"/>
  <path fill="#FDFBF6" stroke="none" d="&#xA;M335.364258,391.739441 &#xA;&#x9;C331.530487,391.959137 328.076538,391.959137 323.857391,391.959137 &#xA;&#x9;C325.866913,385.447296 327.722839,379.433075 329.578796,373.418884 &#xA;&#x9;C330.043579,373.371643 330.508362,373.324371 330.973114,373.277130 &#xA;&#x9;C332.563446,379.358002 334.153748,385.438904 335.364258,391.739441 &#xA;z"/>
</svg>